<?xml version="1.0" standalone="no"?>
<!DOCTYPE svg PUBLIC "-//W3C//DTD SVG 20010904//EN"
 "http://www.w3.org/TR/2001/REC-SVG-20010904/DTD/svg10.dtd">
<svg version="1.0" xmlns="http://www.w3.org/2000/svg"
 width="1152.000000pt" height="1152.000000pt" viewBox="0 0 1152.000000 1152.000000"
 preserveAspectRatio="xMidYMid meet">
<metadata>
Created by potrace 1.14, written by Peter Selinger 2001-2017
</metadata>
<g transform="translate(0.000000,1152.000000) scale(0.100000,-0.100000)"
fill="#000000" stroke="none">
<path d="M5491 9830 c-36 -9 -173 -23 -229 -24 -20 -1 -31 -5 -28 -13 3 -6 -1
-17 -9 -23 -10 -9 -20 -7 -39 5 -14 10 -26 21 -26 27 0 5 -37 8 -82 7 -46 0
-87 0 -93 1 -5 1 -29 2 -52 1 -45 -1 -61 -21 -18 -21 14 0 25 -5 25 -10 0 -7
-14 -9 -37 -5 -28 5 -34 4 -23 -4 12 -8 12 -13 3 -22 -9 -9 -15 -9 -27 0 -12
10 -14 9 -9 -8 3 -11 12 -22 22 -25 9 -2 3 -4 -14 -3 -17 1 -29 -3 -28 -9 1
-7 -15 -11 -48 -9 -35 2 -52 -2 -56 -11 -7 -19 -23 -18 -23 1 0 8 7 15 15 15
8 0 15 5 15 10 0 13 -16 13 -42 -1 -17 -9 -20 -9 -16 3 4 10 -2 13 -28 10 -19
-2 -32 -8 -29 -12 3 -4 -4 -10 -15 -13 -12 -3 -20 -14 -20 -27 0 -19 -4 -21
-27 -16 -16 3 -22 3 -15 0 20 -9 14 -27 -7 -21 -12 3 -27 -3 -37 -14 -9 -10
-20 -19 -25 -19 -8 0 -144 -138 -186 -189 -15 -18 -38 -45 -51 -60 -13 -14
-30 -38 -40 -53 -9 -16 -20 -28 -24 -28 -4 0 -8 -5 -8 -10 0 -6 -24 -46 -52
-88 -29 -42 -62 -95 -73 -117 -12 -22 -34 -60 -49 -84 -32 -50 -56 -93 -134
-241 -30 -58 -59 -106 -64 -108 -4 -2 -8 -10 -8 -18 0 -8 -11 -32 -25 -54 -14
-22 -25 -42 -25 -45 0 -2 -18 -42 -39 -87 -21 -46 -49 -105 -61 -133 -12 -27
-31 -70 -42 -94 -32 -72 -106 -294 -115 -346 -3 -16 -10 -35 -15 -42 -5 -7
-13 -36 -18 -65 -5 -29 -13 -71 -18 -93 -5 -22 -22 -98 -37 -170 -15 -71 -31
-148 -35 -170 -5 -22 -12 -53 -15 -70 -4 -16 -21 -93 -40 -170 -54 -228 -75
-324 -75 -342 0 -10 -10 -54 -21 -98 -19 -74 -29 -117 -49 -205 -4 -19 -16
-69 -27 -110 -11 -41 -25 -100 -32 -130 -15 -68 -26 -116 -45 -200 -9 -36 -24
-105 -36 -153 -11 -48 -20 -104 -20 -124 0 -20 -4 -50 -9 -67 -10 -30 -30
-148 -51 -296 -11 -74 -19 -122 -39 -230 -6 -30 -15 -91 -21 -135 -6 -44 -18
-117 -27 -163 -8 -46 -12 -89 -9 -97 2 -7 0 -15 -6 -17 -10 -4 -15 -23 -44
-168 -9 -47 -21 -95 -27 -108 -6 -13 -11 -39 -11 -57 0 -19 -6 -37 -13 -39 -7
-3 -13 -16 -13 -30 0 -14 -4 -28 -10 -31 -6 -3 -10 -13 -10 -21 0 -8 4 -12 10
-9 18 11 11 -34 -9 -54 -17 -17 -25 -43 -38 -126 -3 -16 -16 -53 -29 -81 -13
-28 -24 -56 -24 -63 0 -6 -4 -19 -9 -29 -58 -118 -97 -191 -112 -208 -11 -11
-19 -25 -19 -31 0 -6 -15 -33 -33 -59 -18 -27 -40 -62 -49 -79 -8 -16 -34 -66
-58 -110 -99 -183 -211 -404 -242 -475 -37 -84 -46 -106 -53 -130 -4 -14 -17
-50 -30 -80 -23 -56 -55 -156 -77 -245 -6 -27 -17 -57 -22 -65 -25 -35 -36
-61 -36 -87 0 -50 -22 -153 -31 -147 -6 3 -7 -6 -4 -23 14 -62 39 -109 74
-143 53 -49 84 -97 78 -120 -3 -11 -1 -20 4 -20 5 0 9 11 9 24 0 20 4 23 21
19 11 -3 23 -13 26 -22 3 -9 7 -23 11 -31 12 -34 41 -219 42 -268 0 -32 5 -54
13 -58 8 -3 13 -29 14 -75 1 -39 7 -103 14 -142 7 -40 12 -83 11 -96 -1 -13 5
-67 13 -120 20 -123 27 -172 27 -191 0 -8 6 -40 13 -70 7 -30 13 -64 13 -75 0
-11 9 -58 20 -105 11 -47 25 -112 32 -145 7 -33 19 -74 27 -92 7 -17 18 -51
23 -75 20 -95 33 -143 39 -153 4 -5 13 -30 20 -55 13 -45 27 -82 41 -110 6
-13 438 -15 3783 -18 l3776 -2 10 52 c6 29 18 96 26 148 16 96 30 150 46 182
5 10 9 31 9 47 0 17 4 32 9 35 5 3 11 18 14 33 3 16 13 53 22 83 9 30 20 75
25 100 5 25 13 63 19 85 12 45 25 127 40 255 6 47 18 141 27 210 9 69 20 172
25 230 5 58 13 134 18 170 5 36 14 99 20 140 5 41 17 118 26 170 9 52 21 133
26 178 5 46 11 87 13 90 9 15 21 389 19 587 -4 295 -21 534 -52 735 -6 36 -17
110 -25 165 -14 92 -24 152 -46 260 -14 72 -95 347 -120 410 -64 159 -86 204
-184 374 -30 52 -97 148 -181 260 -5 8 -35 40 -65 71 -59 61 -117 93 -277 154
-50 19 -99 39 -110 45 -20 11 -59 27 -148 61 -33 12 -73 28 -90 35 -16 7 -52
20 -80 30 -27 10 -63 23 -80 30 -16 7 -51 20 -77 30 -27 10 -48 22 -48 26 0 5
-8 9 -18 9 -10 0 -27 7 -38 15 -10 8 -29 15 -40 15 -12 0 -27 7 -34 15 -7 8
-18 15 -25 15 -8 0 -36 12 -64 26 -70 34 -125 41 -297 38 -122 -3 -150 -6
-166 -21 -14 -12 -17 -13 -13 -2 3 9 -7 21 -30 33 -20 11 -34 24 -32 30 2 6
-2 16 -10 21 -14 11 -35 90 -52 200 -6 39 -13 175 -16 303 -6 249 -19 452 -34
511 -5 20 -14 74 -21 121 -6 47 -22 128 -35 180 -13 52 -31 124 -40 160 -9 36
-20 79 -25 95 -4 17 -18 64 -29 105 -12 41 -25 82 -29 90 -5 8 -14 40 -21 70
-6 30 -16 71 -21 90 -6 19 -21 78 -35 130 -14 52 -30 104 -34 115 -5 11 -14
36 -21 55 -23 67 -103 271 -131 335 -25 57 -97 205 -117 240 -93 165 -136 236
-143 241 -5 3 -9 12 -9 20 0 47 -319 438 -463 566 -44 40 -90 82 -102 93 -12
11 -38 31 -58 45 -20 14 -37 28 -37 33 0 4 -5 7 -11 7 -9 0 -44 25 -116 85
-35 28 -68 50 -103 67 -14 7 -27 15 -30 18 -9 9 -134 67 -195 91 -33 13 -64
27 -69 31 -6 4 -19 8 -31 8 -12 0 -30 7 -41 15 -10 8 -38 15 -61 15 -23 0 -77
7 -120 15 -82 16 -225 18 -282 5z m-494 -96 c-3 -3 -12 -4 -19 -1 -8 3 -5 6 6
6 11 1 17 -2 13 -5z m-367 -48 c0 -3 -4 -8 -10 -11 -5 -3 -10 -1 -10 4 0 6 5
11 10 11 6 0 10 -2 10 -4z m58 -18 c-3 -7 -18 -14 -34 -15 -27 -2 -28 -1 -10
13 24 17 49 18 44 2z m-48 -43 c0 -2 -13 -11 -30 -20 -25 -13 -29 -13 -24 -1
6 16 54 35 54 21z m-95 -65 c-3 -5 -11 -10 -16 -10 -6 0 -7 5 -4 10 3 6 11 10
16 10 6 0 7 -4 4 -10z m1305 -900 c0 -5 -2 -10 -4 -10 -3 0 -8 5 -11 10 -3 6
-1 10 4 10 6 0 11 -4 11 -10z m80 -10 c0 -5 -2 -10 -4 -10 -3 0 -8 5 -11 10
-3 6 -1 10 4 10 6 0 11 -4 11 -10z m-63 -24 c-9 -7 -17 -21 -17 -30 0 -9 -4
-16 -8 -16 -4 0 -8 9 -8 20 0 11 4 20 9 20 4 0 5 4 2 10 -3 6 1 7 9 4 10 -4
16 -1 16 7 0 7 3 9 7 5 5 -4 0 -13 -10 -20z m70 -152 c-3 -3 -12 -4 -19 -1 -8
3 -5 6 6 6 11 1 17 -2 13 -5z m-180 -56 c-3 -7 -5 -2 -5 12 0 14 2 19 5 13 2
-7 2 -19 0 -25z m-154 5 c-7 -2 -19 -2 -25 0 -7 3 -2 5 12 5 14 0 19 -2 13 -5z
m232 -54 c11 -17 -1 -21 -15 -4 -8 9 -8 15 -2 15 6 0 14 -5 17 -11z m-125 -41
c0 -5 -9 -8 -19 -8 -14 0 -18 -5 -14 -20 3 -12 -1 -22 -11 -26 -24 -9 -19 -26
5 -19 25 8 45 -14 26 -28 -7 -5 -1 -5 13 -1 14 4 28 12 33 18 5 8 10 7 16 -3
11 -17 26 3 15 21 -5 8 0 9 15 5 17 -4 24 0 31 19 13 34 23 30 15 -6 -4 -16
-2 -30 3 -30 13 0 35 47 28 59 -4 6 -3 11 1 11 5 0 14 -13 20 -29 9 -26 8 -30
-11 -39 -16 -8 -17 -11 -4 -11 9 -1 23 5 30 12 7 6 27 17 45 23 31 12 32 11
36 -20 3 -26 4 -24 7 14 l3 45 7 -45 7 -45 1 43 c1 24 6 41 11 37 5 -3 12 -1
16 5 3 5 12 10 18 10 7 0 6 -4 -3 -10 -11 -7 -7 -10 19 -10 45 0 36 -8 -12
-12 -20 -1 -37 -6 -37 -10 0 -7 78 -2 108 8 7 2 12 -6 12 -21 0 -25 19 -36 21
-12 0 6 5 0 11 -15 5 -16 16 -28 25 -28 12 0 12 2 -1 16 -9 8 -14 20 -11 25 9
14 25 11 25 -6 0 -8 5 -15 12 -15 18 0 57 -41 52 -54 -5 -14 52 -16 74 -3 17
11 34 -2 28 -21 -3 -10 -2 -23 3 -31 7 -11 11 -10 20 5 10 18 10 18 11 -3 0
-35 11 -53 32 -53 15 0 18 -5 14 -22 -3 -13 -3 -17 0 -9 4 8 9 10 13 3 3 -6
19 -12 35 -15 17 -2 30 -10 32 -20 1 -9 10 -26 19 -39 l17 -23 -4 26 c-4 22
-1 27 19 27 14 0 23 -6 23 -17 0 -11 3 -12 8 -4 5 9 20 6 55 -10 26 -12 47
-26 47 -31 0 -5 -7 -3 -15 4 -9 7 -15 8 -15 2 0 -13 25 -22 61 -22 18 0 28 -4
24 -10 -4 -6 -11 -8 -16 -5 -5 4 -9 2 -9 -3 0 -6 7 -13 16 -16 8 -3 12 -2 9 4
-3 6 1 10 9 10 9 0 13 -6 10 -14 -3 -9 -34 -15 -97 -20 -50 -4 -96 -11 -102
-16 -6 -5 -23 -10 -37 -12 -15 -2 -30 -7 -34 -10 -3 -4 -25 -5 -47 -2 -32 3
-38 2 -27 -6 12 -9 11 -10 -7 -5 -12 3 -30 1 -40 -4 -10 -6 -47 -15 -82 -20
-36 -6 -67 -15 -71 -20 -3 -6 -21 -12 -40 -14 -19 -2 -44 -8 -56 -15 -11 -6
-32 -9 -45 -6 -19 5 -21 4 -9 -5 12 -9 9 -10 -12 -5 -24 5 -28 3 -28 -14 0
-12 -9 -23 -20 -27 -11 -3 -20 -12 -20 -20 0 -8 -9 -17 -20 -20 -11 -3 -20
-11 -20 -16 0 -6 5 -7 10 -4 6 3 10 1 10 -4 0 -6 -8 -11 -17 -11 -12 0 -14 -3
-7 -8 11 -7 11 -31 -2 -122 -12 -85 -10 -108 5 -102 12 4 13 -3 8 -45 -4 -39
-2 -53 8 -57 13 -5 44 -59 49 -88 2 -7 6 -31 10 -53 14 -75 86 -218 112 -224
10 -2 23 -10 29 -18 10 -13 13 -13 27 1 23 23 28 20 28 -14 0 -16 5 -30 10
-30 6 0 10 -7 10 -15 0 -8 5 -15 11 -15 6 0 8 -7 5 -16 -7 -18 10 -54 25 -54
6 0 9 6 6 14 -3 8 2 16 15 19 20 6 20 23 1 92 -5 18 -5 18 11 2 24 -24 39 -22
25 4 -8 16 -8 24 1 33 8 8 10 7 5 -5 -5 -12 2 -18 27 -23 26 -5 30 -9 18 -16
-8 -5 -11 -10 -6 -10 5 0 18 8 29 18 19 16 20 16 14 0 -4 -10 -2 -18 3 -18 6
0 10 7 10 15 0 22 17 18 23 -4 4 -16 18 -21 68 -27 35 -5 82 -7 104 -7 22 1
53 2 68 2 16 1 26 5 22 11 -3 6 1 10 9 10 9 0 16 -4 16 -10 0 -5 4 -10 10 -10
5 0 7 6 4 14 -4 11 0 13 17 9 14 -4 20 -2 16 4 -5 7 0 9 13 6 11 -3 20 0 20 6
0 6 7 11 15 11 8 0 15 5 15 10 0 6 5 10 11 10 15 0 39 26 32 34 -4 3 -1 6 5 6
7 0 12 -6 12 -12 0 -9 4 -8 10 2 5 8 10 11 10 5 0 -5 7 -2 15 9 7 10 18 15 24
11 6 -3 11 -2 11 3 0 19 59 0 66 -22 7 -21 7 -21 15 -1 6 15 8 16 8 4 1 -9 7
-19 15 -22 8 -3 17 -20 21 -38 5 -20 10 -27 15 -19 14 23 21 -8 20 -83 -1 -39
-1 -81 0 -92 1 -19 2 -18 10 3 16 39 28 24 25 -34 -1 -34 1 -51 6 -42 5 7 9 8
9 2 0 -5 -5 -15 -12 -22 -7 -7 -8 -12 -2 -12 5 0 10 -21 10 -46 1 -26 7 -50
13 -53 13 -9 4 -41 -11 -41 -6 0 -5 6 2 15 10 12 10 15 -2 15 -10 0 -15 -10
-16 -27 0 -49 -2 -54 -14 -47 -6 4 -8 3 -5 -3 4 -6 -5 -27 -18 -48 -14 -20
-23 -41 -19 -46 3 -6 -2 -17 -12 -25 -18 -14 -18 -15 4 -9 13 4 22 2 22 -4 0
-6 -9 -11 -21 -11 -15 0 -19 -5 -15 -15 4 -12 -1 -14 -29 -11 -20 3 -33 1 -30
-4 3 -5 0 -18 -6 -28 -11 -17 -15 -18 -40 -5 -15 8 -31 22 -34 32 -7 23 -55
35 -55 15 0 -8 -8 -14 -17 -14 -15 0 -16 2 -3 10 13 9 13 11 0 20 -8 5 -22 10
-32 10 -9 0 -19 6 -22 13 -5 9 -7 9 -12 -1 -4 -9 -17 -2 -40 23 -19 20 -34 41
-34 46 0 5 -9 9 -19 9 -10 0 -21 7 -25 15 -3 8 -12 15 -21 15 -8 0 -14 4 -13
8 2 5 -12 23 -29 39 -26 24 -33 27 -34 15 -1 -14 -2 -14 -6 1 -5 20 -43 63
-43 50 0 -5 -4 -3 -8 2 -4 6 -26 19 -49 29 -30 13 -40 23 -36 35 3 11 2 12 -4
4 -5 -7 -18 -11 -30 -10 -17 1 -20 5 -12 18 5 11 5 20 0 23 -5 4 -12 0 -14 -6
-3 -8 -6 -6 -6 5 -1 9 -6 17 -12 17 -6 0 -9 -7 -5 -15 3 -9 0 -15 -8 -15 -9 0
-12 7 -9 20 4 15 0 20 -16 20 -15 0 -21 -6 -21 -22 0 -19 2 -20 10 -8 7 11 10
7 10 -17 0 -24 4 -31 14 -27 8 3 17 1 21 -5 3 -6 1 -11 -5 -11 -6 0 -8 -5 -4
-12 5 -7 11 -5 21 7 7 11 13 13 13 6 0 -7 4 -10 9 -6 5 3 12 1 16 -5 3 -5 -3
-10 -14 -10 -26 0 -26 -5 -1 -32 12 -14 20 -35 20 -57 -1 -40 -44 -122 -53
-99 -4 9 -6 8 -6 -4 -1 -13 -14 -17 -68 -20 -74 -4 -85 -2 -63 12 12 8 12 10
2 10 -8 0 -16 -9 -19 -21 -4 -12 -17 -22 -34 -26 -16 -3 -29 -12 -29 -19 0 -8
-4 -14 -10 -14 -5 0 -10 -7 -10 -15 0 -7 -6 -18 -13 -22 -8 -4 -16 -16 -20
-25 -4 -11 -12 -15 -22 -12 -11 5 -14 2 -9 -10 6 -14 2 -16 -22 -10 -16 4 -31
10 -34 14 -3 4 -26 6 -52 6 -44 -1 -47 -3 -41 -23 4 -18 1 -23 -13 -23 -13 0
-15 3 -7 8 13 8 2 34 -13 31 -22 -4 -32 2 -39 24 -4 14 -8 17 -12 9 -3 -8 -9
-9 -16 -4 -7 5 -32 16 -57 25 -48 18 -103 14 -218 -17 -28 -8 -58 -13 -65 -12
-40 9 -67 19 -67 27 0 5 -8 9 -17 9 -15 0 -16 2 -3 10 10 6 11 10 3 10 -7 0
-13 9 -13 20 0 19 -43 40 -56 27 -13 -13 17 -84 41 -97 20 -11 23 -16 12 -28
-10 -13 -9 -14 10 -8 27 9 39 -9 21 -32 -12 -16 -11 -16 6 -2 21 17 19 17 63
-16 33 -25 59 -32 47 -13 -3 6 6 3 21 -7 21 -13 28 -15 34 -5 6 10 10 9 14 -3
4 -9 3 -15 -1 -15 -19 3 -25 -2 -12 -11 13 -9 13 -10 0 -10 -13 0 -13 -2 -1
-9 9 -6 22 -6 31 -1 9 5 22 5 31 -1 11 -7 8 -9 -11 -10 -17 -1 -12 -4 17 -11
34 -7 41 -13 38 -29 -3 -13 0 -17 8 -12 26 16 157 -6 157 -26 0 -16 -14 -20
-27 -10 -7 7 -13 7 -13 2 0 -6 -28 -9 -66 -7 -47 2 -70 -1 -81 -11 -10 -10
-20 -12 -38 -5 -15 6 -27 6 -30 0 -4 -6 5 -10 19 -10 19 0 24 -4 20 -15 -5
-11 -10 -12 -18 -6 -18 15 -79 18 -83 4 -3 -7 -12 -9 -21 -6 -14 4 -15 3 -2
-6 8 -5 24 -9 35 -7 11 2 14 1 7 -1 -7 -3 -9 -9 -6 -15 5 -7 2 -8 -6 -3 -22
13 -64 15 -72 2 -5 -8 -8 -7 -8 4 0 15 -4 15 -35 5 -19 -7 -38 -15 -41 -19 -4
-4 -18 -4 -30 -1 -16 4 -26 1 -29 -8 -4 -10 -16 -13 -35 -10 -18 3 -30 0 -30
-7 0 -6 -13 -11 -29 -11 -16 0 -36 -7 -45 -15 -8 -8 -18 -15 -23 -15 -5 0 -25
-9 -46 -20 -33 -18 -37 -18 -29 -4 12 22 4 54 -15 54 -8 0 -12 -4 -8 -9 3 -6
-3 -15 -14 -20 -15 -8 -23 -7 -35 5 -15 14 -16 14 -17 -3 0 -10 -3 -13 -6 -5
-2 6 -11 12 -19 12 -9 0 -13 -5 -9 -12 4 -7 -1 -4 -10 7 -17 20 -17 20 -10 -2
3 -13 2 -23 -3 -23 -5 0 -12 13 -14 29 -2 17 -2 30 1 29 22 -2 31 5 31 22 0
11 4 20 9 20 5 0 12 11 15 24 4 16 17 28 40 36 24 8 36 19 41 37 5 21 8 24 16
12 7 -11 9 -9 9 9 0 12 4 22 9 22 5 0 7 -10 3 -22 -3 -14 -2 -19 7 -14 6 4 9
12 6 17 -4 5 -1 9 4 9 6 0 11 5 11 11 0 5 -4 7 -10 4 -16 -10 -12 38 6 63 26
37 13 52 -35 39 -23 -6 -41 -17 -41 -25 0 -7 5 -10 12 -6 7 4 8 3 4 -5 -4 -6
-11 -9 -16 -6 -5 3 -18 -3 -30 -15 -11 -11 -15 -20 -9 -20 6 0 4 -7 -5 -15 -8
-8 -19 -15 -25 -15 -6 0 -10 -6 -9 -12 2 -7 -3 -12 -9 -10 -7 1 -13 -4 -13
-11 0 -16 -47 -60 -75 -71 -16 -6 -17 -9 -5 -16 12 -8 12 -10 2 -10 -16 0 -51
-39 -52 -57 0 -7 -7 -13 -16 -13 -8 0 -12 -4 -9 -10 3 -6 -1 -7 -9 -4 -21 8
-21 -12 0 -24 14 -8 14 -10 0 -21 -11 -9 -16 -10 -16 -2 0 6 -5 11 -11 11 -5
0 -8 -4 -5 -9 3 -5 0 -11 -8 -14 -7 -3 -13 -19 -14 -36 0 -24 3 -29 16 -24 15
6 15 5 3 -10 -12 -15 -11 -17 13 -17 14 0 26 5 26 10 0 6 5 10 11 10 6 0 9 -9
6 -19 -3 -14 -1 -18 9 -14 9 3 14 -2 14 -15 0 -18 13 -21 51 -13 3 0 4 13 1
27 -3 19 -7 22 -13 12 -6 -9 -9 -7 -9 9 0 30 17 38 25 12 4 -11 9 -18 13 -15
9 10 53 -94 46 -106 -4 -7 -2 -8 4 -4 7 4 12 2 12 -3 0 -6 5 -11 11 -11 7 0
18 -8 26 -17 14 -17 14 -17 9 0 -3 11 -2 16 4 12 6 -3 10 -18 10 -32 l0 -26
20 23 c17 20 22 21 37 9 15 -13 16 -12 11 9 -4 12 -2 22 4 22 6 0 3 9 -7 20
-10 11 -13 20 -7 20 7 0 12 -4 12 -10 0 -5 12 -10 26 -10 16 0 23 -4 18 -11
-5 -9 1 -10 20 -5 18 4 25 3 21 -3 -4 -7 1 -8 11 -4 11 4 22 -1 31 -13 11 -15
15 -16 22 -5 7 11 11 10 20 -5 6 -11 11 -17 11 -14 9 42 9 54 0 40 -8 -13 -10
-13 -10 2 0 23 19 33 26 13 4 -9 13 -14 20 -11 8 3 14 2 14 -3 0 -5 16 -8 35
-7 19 0 35 6 35 11 0 6 3 6 8 -1 12 -18 39 -23 52 -11 10 9 11 9 4 -3 -14 -24
-14 -42 -1 -32 22 17 333 36 352 22 19 -14 64 -17 127 -7 35 5 109 10 164 10
77 2 106 6 120 18 21 18 116 24 198 13 38 -5 46 -8 32 -16 -9 -5 -14 -13 -11
-17 4 -8 -34 -23 -44 -18 -3 1 -10 -11 -17 -28 -7 -16 -13 -25 -14 -19 0 7 -9
14 -20 17 -16 4 -20 0 -20 -18 0 -16 -6 -22 -22 -23 -37 0 -68 -13 -68 -28 0
-8 -7 -14 -15 -14 -22 0 -30 4 -27 13 1 4 -5 7 -13 7 -8 0 -15 -8 -15 -17 0
-13 -2 -15 -8 -5 -9 13 -42 6 -42 -8 0 -19 27 -23 137 -23 71 0 119 5 126 12
6 6 26 11 44 11 18 0 33 4 33 9 0 9 48 26 63 23 4 -1 7 2 7 8 0 5 9 10 19 10
10 0 21 7 25 15 3 8 12 15 21 15 8 0 15 5 15 10 0 6 15 10 33 10 25 0 29 3 17
11 -11 7 -12 12 -3 15 7 3 9 12 6 20 -3 8 1 14 11 14 9 0 16 8 17 18 0 12 3
10 11 -8 l11 -25 7 25 c5 14 9 18 9 10 1 -12 3 -13 10 -1 14 22 33 4 21 -20
-6 -10 -10 -36 -8 -56 2 -22 -2 -38 -10 -40 -7 -3 -10 1 -6 10 4 12 0 14 -17
10 -20 -6 -20 -7 -5 -18 9 -7 16 -20 16 -29 0 -9 6 -16 13 -16 8 0 7 -4 -3
-10 -13 -9 -13 -10 0 -11 51 -5 61 -7 67 -13 3 -3 3 -9 -1 -13 -4 -4 -10 -3
-14 3 -4 7 -15 8 -27 3 -15 -6 -16 -8 -4 -8 20 -1 33 -28 18 -36 -5 -4 -7 -11
-3 -16 3 -5 1 -16 -5 -23 -6 -7 -11 -24 -11 -37 1 -95 -2 -149 -10 -144 -4 3
-11 -14 -15 -37 -10 -62 -27 -108 -41 -108 -7 0 -15 -13 -19 -30 -4 -16 -14
-34 -23 -39 -9 -5 -16 -13 -14 -18 3 -12 -67 -93 -81 -93 -7 0 -21 -14 -31
-30 -9 -17 -22 -28 -27 -24 -6 3 -19 -2 -30 -12 -10 -9 -19 -13 -19 -8 0 5 -4
4 -8 -2 -11 -17 -71 -46 -81 -39 -5 3 -11 0 -13 -6 -2 -7 -39 -12 -100 -12
-63 -1 -94 -5 -90 -12 3 -6 0 -5 -9 1 -16 13 -21 13 -124 16 -61 1 -79 -2 -97
-18 -18 -15 -20 -16 -9 -2 17 23 -4 25 -25 3 -16 -16 -34 -20 -34 -7 0 4 -21
6 -47 6 -27 -1 -53 2 -59 7 -6 5 -24 10 -40 10 -26 2 -96 20 -134 36 -23 9
-41 13 -95 18 -47 5 -145 22 -173 31 -7 2 -14 2 -16 1 -1 -1 -10 4 -19 12 -10
7 -17 10 -17 5 0 -5 -4 -3 -8 4 -5 7 -20 15 -33 17 -42 9 -104 34 -102 42 1 4
-15 9 -35 10 -20 1 -38 7 -40 12 -2 6 -13 11 -25 11 -16 0 -18 3 -9 9 11 6 10
10 -4 15 -10 4 -21 1 -26 -6 -6 -10 -8 -9 -8 4 0 12 -6 16 -25 12 -18 -3 -29
2 -41 21 -9 14 -20 22 -25 19 -13 -8 -11 10 4 25 10 10 7 11 -14 6 -30 -7 -99
28 -99 51 0 8 -7 14 -15 14 -8 0 -15 4 -15 10 0 5 -7 7 -15 4 -10 -4 -15 0
-15 11 0 9 -4 14 -8 11 -5 -3 -15 6 -22 20 -8 13 -24 27 -36 30 -12 3 -25 12
-28 21 -3 8 -10 11 -16 8 -5 -3 -10 3 -10 14 0 11 -4 23 -10 26 -6 3 -7 -1 -4
-12 4 -15 3 -14 -7 2 -7 11 -19 26 -26 33 -7 7 -13 17 -13 22 0 5 -7 7 -15 4
-10 -4 -15 0 -15 16 0 11 -4 18 -10 15 -5 -3 -10 1 -10 9 0 9 -6 16 -14 16 -8
0 -14 6 -13 13 1 32 -4 48 -13 42 -5 -3 -10 1 -10 10 0 8 -7 18 -15 21 -8 4
-15 12 -15 20 0 8 -8 14 -17 15 -16 0 -15 1 2 8 18 7 18 8 -5 14 -18 4 -25 14
-26 31 -1 14 -9 32 -17 40 -8 9 -13 25 -10 36 3 11 0 20 -6 20 -6 0 -11 9 -11
19 0 10 -7 22 -16 25 -8 3 -13 10 -9 15 3 5 1 12 -5 16 -5 3 -10 11 -10 17 0
6 7 5 17 -3 14 -12 16 -12 11 1 -2 8 -14 19 -26 25 -16 7 -22 19 -22 42 0 17
-5 35 -10 38 -6 4 -8 10 -5 15 3 4 -2 13 -10 20 -7 6 -11 18 -8 26 3 8 0 14
-6 14 -6 0 -11 11 -11 25 0 15 5 23 13 20 7 -3 12 5 13 22 1 16 -1 22 -3 16
-10 -28 -23 -11 -23 30 0 27 -3 37 -9 28 -6 -9 -8 -6 -8 13 0 14 7 31 15 38 9
7 13 8 9 2 -3 -6 1 -20 9 -30 9 -10 12 -13 9 -6 -14 27 -16 74 -5 88 16 18 6
44 -17 44 -15 0 -14 4 6 19 23 17 23 21 12 50 -8 17 -11 42 -9 56 3 13 1 22
-3 19 -5 -3 -9 -11 -9 -19 0 -8 -4 -17 -10 -20 -6 -4 -7 1 -3 11 4 12 3 15 -5
10 -7 -4 -12 -1 -12 8 0 8 4 16 9 18 6 2 6 22 0 52 -6 33 -6 53 1 60 5 5 10
28 11 50 2 63 12 91 34 91 12 0 21 8 23 20 2 16 1 17 -7 5 -5 -8 -13 -11 -17
-7 -4 4 -2 13 4 19 7 7 12 20 12 30 0 9 14 31 31 49 23 24 29 37 25 55 -4 13
-3 24 1 23 20 -3 34 2 28 11 -3 6 -1 10 4 10 6 0 11 7 11 15 0 8 5 15 10 15 6
0 10 9 10 21 0 12 4 17 11 14 6 -4 13 3 17 16 l6 24 5 -23 c6 -23 6 -22 40 8
33 31 55 34 31 5 -8 -10 -9 -15 -1 -15 6 0 11 5 11 11 0 6 7 8 16 5 8 -3 12
-2 9 4 -3 6 5 10 19 10 14 0 26 -4 26 -10 0 -5 6 -10 14 -10 8 0 16 -4 18 -9
2 -4 23 -11 47 -14 30 -4 40 -2 30 4 -9 6 -2 7 21 2 19 -3 37 -10 38 -15 2 -4
16 -8 32 -8 15 0 47 -9 71 -19 24 -11 47 -17 51 -15 4 3 8 1 8 -5 0 -15 110
-7 121 10 5 8 9 10 9 6 0 -4 9 -3 20 3 14 8 20 8 20 0 0 -6 7 -4 16 5 9 8 36
21 61 28 25 6 48 17 50 24 3 7 14 13 24 13 11 0 22 6 25 14 3 8 12 12 19 10 7
-3 16 3 19 14 6 18 23 31 36 28 3 0 19 12 34 27 15 16 31 25 34 22 4 -4 -1
-11 -11 -16 -9 -6 -14 -15 -11 -21 4 -7 2 -8 -4 -4 -8 5 -10 2 -6 -9 5 -11 10
-13 19 -5 6 5 14 8 17 5 3 -3 13 4 22 14 10 11 23 17 30 15 15 -6 41 22 41 45
0 11 9 15 32 15 18 -1 30 3 27 7 -3 5 1 9 9 9 20 0 50 37 44 54 -3 8 3 24 14
37 22 25 25 45 7 52 -10 3 -10 7 1 20 10 13 11 20 2 31 -9 11 -9 15 1 20 8 4
9 8 3 11 -6 3 -9 25 -7 50 3 28 0 45 -7 45 -6 0 -11 14 -11 31 0 20 -4 28 -12
23 -7 -4 -8 -3 -4 4 4 7 1 12 -6 12 -8 0 -6 5 5 11 19 11 24 34 5 26 -9 -3
-14 7 -15 29 -3 30 0 34 22 34 22 0 30 9 26 33 0 4 7 7 17 7 14 0 15 2 2 10
-13 8 -13 10 2 10 20 0 52 55 44 76 -3 8 -12 14 -20 14 -10 0 -13 6 -10 15 4
10 0 15 -15 15 -12 0 -21 -6 -21 -15 0 -28 -28 -15 -35 15 -4 17 -11 28 -16
24 -5 -3 -13 5 -19 18 l-9 23 -7 -22 c-3 -13 -10 -20 -15 -17 -5 3 -9 -3 -10
-13 0 -15 -2 -14 -11 5 -6 12 -14 22 -17 22 -116 6 -243 12 -346 15 -71 3
-149 8 -171 11 -24 3 -51 1 -63 -5 -13 -7 -21 -8 -21 -2 0 11 -179 8 -201 -4
-8 -3 -3 3 11 15 23 21 23 23 7 35 -14 10 -15 14 -4 18 7 3 19 -4 25 -14 7
-10 18 -19 25 -19 13 0 37 44 37 68 0 8 6 12 15 8 9 -3 15 0 15 9 0 8 5 15 11
15 5 0 7 4 4 10 -8 13 27 28 105 44 56 11 62 14 45 24 -15 9 -16 12 -5 13 8 1
18 1 22 0 4 0 15 15 24 35 9 19 28 42 40 51 13 8 24 24 24 35 0 28 24 50 39
35 9 -9 13 -6 18 13 6 22 7 23 14 4 7 -18 8 -17 8 4 2 41 51 23 51 -19 0 -5
-8 -10 -17 -10 -17 -1 -17 -2 0 -6 20 -5 22 -14 5 -31 -9 -9 -8 -12 5 -12 10
0 20 7 23 15 4 8 12 15 19 15 7 0 16 7 19 16 5 13 1 15 -19 12 -23 -5 -25 -3
-25 36 0 22 4 46 8 52 11 17 60 26 68 13 4 -8 9 -7 16 2 7 10 8 5 4 -13 -4
-16 -2 -28 3 -28 12 0 23 29 15 42 -7 12 15 58 28 58 5 0 4 -9 -2 -19 -13 -26
-13 -31 3 -31 8 0 19 11 25 25 7 15 17 23 26 19 12 -5 13 -10 3 -32 -7 -15
-20 -36 -29 -46 -23 -25 -15 -33 17 -16 14 7 25 22 25 32 0 10 5 18 10 18 6 0
10 10 11 23 0 12 3 16 6 10 3 -10 8 -9 19 2 8 8 21 12 29 9 9 -4 16 3 21 20 3
15 11 23 17 19 6 -4 8 2 4 18 -5 22 -5 22 7 7 13 -18 27 -24 24 -10 0 4 2 15
7 25 6 13 10 15 21 6 11 -9 10 -16 -7 -40 -11 -16 -18 -29 -14 -29 13 0 56 51
50 60 -3 5 0 18 6 29 10 15 16 17 31 8 10 -7 18 -15 18 -19z m77 16 c-3 -3
-12 -4 -19 -1 -8 3 -5 6 6 6 11 1 17 -2 13 -5z m49 -9 c10 -8 15 -14 9 -14 -5
0 -19 6 -29 14 -11 8 -15 15 -10 15 6 0 19 -7 30 -15z m274 -15 c13 -8 13 -10
-2 -10 -9 0 -20 5 -23 10 -8 13 5 13 25 0z m-360 -6 c0 -3 -7 -12 -16 -21 -8
-9 -13 -22 -10 -29 6 -16 -10 -19 -19 -4 -3 5 2 21 12 35 17 23 33 32 33 19z
m63 -13 c-3 -12 -11 -17 -19 -14 -12 4 -11 8 3 19 10 7 19 14 20 14 0 0 -1 -9
-4 -19z m511 -70 c3 -5 -1 -14 -9 -21 -11 -9 -19 -8 -37 5 l-23 17 28 -6 c19
-5 26 -3 22 4 -3 5 -2 10 4 10 5 0 12 -4 15 -9z m86 -65 c0 -3 -4 -8 -10 -11
-5 -3 -10 -1 -10 4 0 6 5 11 10 11 6 0 10 -2 10 -4z m34 -21 c-4 -8 -11 -12
-16 -9 -6 4 -5 10 3 15 19 12 19 11 13 -6z m-1354 -110 c0 -8 -4 -15 -9 -15
-13 0 -22 16 -14 24 11 11 23 6 23 -9z m-318 -257 c-7 -7 -12 -8 -12 -2 0 14
12 26 19 19 2 -3 -1 -11 -7 -17z m4 -350 c28 -66 28 -66 -5 -18 -32 47 -37 60
-22 60 5 0 17 -19 27 -42z m1908 16 c3 -9 -16 -13 -69 -16 -41 -2 -70 1 -66 5
5 5 27 8 50 9 22 0 41 3 41 7 0 12 39 7 44 -5z m-1674 -147 c0 -9 -12 -11 -42
-8 -41 5 -42 5 -13 12 47 10 55 10 55 -4z m1391 -59 c24 -29 25 -64 2 -66 -69
-3 -91 24 -53 66 26 27 27 27 51 0z m415 -4 c-11 -7 -22 -12 -25 -9 -2 3 4 12
15 19 10 8 21 12 24 9 3 -2 -4 -11 -14 -19z m-1596 -64 c14 -11 29 -20 34 -20
10 0 35 -30 36 -42 0 -14 -77 -59 -125 -74 -47 -14 -47 -14 -41 9 3 12 12 50
18 85 14 69 31 79 78 42z m290 -78 c0 -7 -4 -10 -10 -7 -5 3 -10 16 -10 28 0
18 2 19 10 7 5 -8 10 -21 10 -28z m997 22 c-3 -3 -12 -4 -19 -1 -8 3 -5 6 6 6
11 1 17 -2 13 -5z m-1719 -60 c23 -23 14 -37 -20 -30 -34 7 -49 22 -41 41 5
15 42 8 61 -11z m2089 -150 c-3 -3 -12 -4 -19 -1 -8 3 -5 6 6 6 11 1 17 -2 13
-5z m-597 -24 c0 -5 -2 -10 -4 -10 -3 0 -8 5 -11 10 -3 6 -1 10 4 10 6 0 11
-4 11 -10z m30 -84 c0 -3 -4 -8 -10 -11 -5 -3 -10 -1 -10 4 0 6 5 11 10 11 6
0 10 -2 10 -4z m-1507 -23 c-7 -2 -19 -2 -25 0 -7 3 -2 5 12 5 14 0 19 -2 13
-5z m227 -53 c0 -5 -4 -10 -10 -10 -5 0 -10 5 -10 10 0 6 5 10 10 10 6 0 10
-4 10 -10z m1617 -372 c-3 -8 -6 -5 -6 6 -1 11 2 17 5 13 3 -3 4 -12 1 -19z
m563 -35 c0 -13 -2 -13 -17 -2 -15 13 -16 10 -10 -26 5 -28 4 -34 -3 -20 -13
29 -12 63 3 68 17 6 27 -1 27 -20z m-615 -3 c3 -5 -1 -10 -9 -10 -9 0 -16 5
-16 10 0 6 4 10 9 10 6 0 13 -4 16 -10z m-29 -15 c10 -10 21 -12 32 -6 25 12
45 3 29 -14 -9 -9 -14 -10 -19 -1 -4 6 -8 -1 -8 -16 0 -14 6 -29 13 -32 6 -4
1 -4 -11 -2 -13 3 -30 2 -38 -1 -18 -7 -18 -43 -1 -43 8 0 14 -7 14 -15 0 -18
-14 -20 -20 -2 -2 6 -4 0 -3 -14 1 -24 3 -25 21 -14 27 17 88 -7 79 -30 -4 -8
-2 -15 4 -15 6 0 12 6 15 13 2 6 4 0 4 -15 0 -20 -6 -28 -26 -33 -14 -4 -20
-10 -13 -12 17 -6 15 -30 -3 -37 -11 -4 -15 2 -15 20 0 22 -2 23 -15 12 -35
-31 -43 -36 -51 -29 -12 11 -224 22 -224 12 0 -4 -12 -7 -27 -5 -16 1 -35 3
-43 3 -11 1 -8 8 10 22 22 19 25 19 28 5 4 -21 32 -21 32 0 0 8 -4 12 -10 9
-5 -3 -10 -1 -10 4 0 6 4 11 10 11 5 0 6 7 3 17 -4 11 -3 14 5 9 7 -4 12 -2
12 6 0 10 3 9 11 -2 9 -13 10 -12 5 3 -3 9 -9 23 -12 31 -4 10 4 13 36 10 29
-2 39 0 34 8 -5 7 -2 10 7 6 15 -5 51 26 42 36 -4 3 10 6 30 6 20 0 38 3 41 8
7 12 -78 1 -87 -12 -6 -7 -7 -6 -5 3 2 8 19 20 37 26 18 6 29 14 25 18 -4 4
-1 7 7 7 8 0 20 -5 26 -11 6 -6 20 -8 32 -4 27 8 28 25 1 18 -16 -4 -20 0 -20
20 0 14 -6 28 -12 30 -10 4 -10 6 0 6 7 1 20 -6 28 -14z m-26 -29 c0 -9 -7
-12 -20 -9 -31 8 -34 23 -6 23 16 0 26 -6 26 -14z m558 -56 c-7 -10 -14 -18
-15 -16 -6 6 9 36 18 36 5 0 4 -9 -3 -20z m-111 -12 c-3 -8 -6 -5 -6 6 -1 11
2 17 5 13 3 -3 4 -12 1 -19z m-2729 -78 c-2 -7 -10 1 -17 16 -12 27 -11 28 4
12 10 -9 16 -21 13 -28z m1800 31 c11 -7 11 -9 -2 -14 -8 -3 -17 -1 -20 6 -5
9 -7 9 -12 0 -6 -14 -44 -18 -44 -5 0 22 51 31 78 13z m-1808 -91 c0 -5 -4
-10 -10 -10 -5 0 -10 5 -10 10 0 6 5 10 10 10 6 0 10 -4 10 -10z m888 -51
c-24 -16 -29 -9 -11 15 14 19 19 21 21 9 2 -9 -2 -19 -10 -24z m1549 -15 c-3
-3 -12 -4 -19 -1 -8 3 -5 6 6 6 11 1 17 -2 13 -5z m-587 -14 c-8 -5 -24 -9
-35 -9 -16 1 -16 2 5 9 35 11 48 11 30 0z m-75 -20 c-3 -5 -18 -10 -33 -9 -24
0 -25 1 -7 9 28 12 47 12 40 0z m-935 -16 c0 -8 -19 -13 -24 -6 -3 5 1 9 9 9
8 0 15 -2 15 -3z m773 -69 c-3 -9 -8 -14 -10 -11 -3 3 -2 9 2 15 9 16 15 13 8
-4z m-96 -1 c-3 -3 -12 -4 -19 -1 -8 3 -5 6 6 6 11 1 17 -2 13 -5z m-97 -14
c8 -5 12 -11 10 -14 -3 -2 -14 2 -24 10 -22 15 -10 19 14 4z m-670 -20 c0 -5
-5 -10 -11 -10 -5 0 -7 5 -4 10 3 6 8 10 11 10 2 0 4 -4 4 -10z m864 -16 c8
-21 -7 -17 -21 6 -11 16 -10 18 1 14 8 -3 17 -12 20 -20z m659 13 c3 -7 2 -26
-1 -43 -5 -26 -4 -28 11 -15 15 12 17 10 17 -22 0 -20 -7 -42 -15 -51 -8 -8
-15 -19 -15 -24 0 -6 -7 -13 -16 -16 -13 -5 -15 -14 -10 -41 6 -28 4 -35 -9
-35 -19 0 -45 23 -45 39 0 18 -18 12 -25 -8 -7 -22 -53 -44 -87 -40 -12 2 -39
-7 -58 -20 -31 -20 -45 -22 -120 -18 -64 3 -101 -1 -149 -16 -77 -23 -168 -20
-183 6 -8 15 -12 15 -45 2 -52 -22 -71 -19 -109 19 -24 24 -36 31 -42 22 -4
-7 -18 -20 -32 -29 -25 -16 -26 -16 -44 13 -19 34 -28 37 -46 15 -34 -41 -102
5 -118 81 -6 27 -9 50 -7 52 7 7 43 -9 65 -28 27 -24 52 -26 44 -5 -4 8 -10
15 -14 15 -5 0 -6 9 -3 20 7 25 54 27 97 5 36 -19 50 -19 66 0 21 26 76 29
122 7 l43 -20 17 20 c10 12 15 24 13 28 -5 8 19 20 38 19 7 0 3 -4 -8 -9 -19
-8 -19 -9 3 -9 12 -1 22 4 22 10 0 8 4 8 13 1 7 -6 33 -10 57 -9 25 1 51 -4
58 -10 21 -20 57 -15 82 12 15 16 38 26 69 30 25 3 58 8 73 10 20 3 28 -1 33
-16 7 -22 36 -19 66 7 18 16 65 19 74 4 11 -18 24 -11 47 25 24 36 61 47 71
22z m527 -18 c0 7 6 11 15 7 8 -3 15 -1 15 3 0 5 -6 12 -12 14 -7 3 -3 6 10 6
26 1 27 -5 7 -53 -8 -20 -11 -36 -6 -36 5 0 -1 -25 -12 -56 -14 -37 -23 -51
-28 -42 -6 9 -9 4 -9 -14 0 -18 -7 -31 -22 -38 -22 -11 -22 -10 -4 4 14 12 16
16 5 16 -20 0 -78 49 -59 50 11 0 15 10 14 36 -1 22 3 37 11 41 8 2 11 11 8
19 -3 8 0 14 6 14 6 0 11 7 11 16 0 8 5 12 11 8 8 -4 9 1 4 17 l-8 24 21 -25
c13 -15 21 -19 22 -11z m-2160 -33 c0 -3 -4 -8 -10 -11 -5 -3 -10 -1 -10 4 0
6 5 11 10 11 6 0 10 -2 10 -4z m872 -28 c-8 -8 -9 -4 -5 13 4 13 8 18 11 10 2
-7 -1 -18 -6 -23z m1348 28 c0 -3 -4 -8 -10 -11 -5 -3 -10 -1 -10 4 0 6 5 11
10 11 6 0 10 -2 10 -4z m-2286 -91 c-4 -8 -10 -15 -15 -15 -5 0 -9 7 -9 15 0
8 7 15 15 15 9 0 12 -6 9 -15z m550 -56 c18 -16 -3 -22 -34 -9 -44 18 -50 34
-9 25 19 -4 38 -11 43 -16z m1596 -21 c0 -16 -3 -19 -11 -11 -6 6 -8 16 -5 22
11 17 16 13 16 -11z m-90 -2 c0 -3 -4 -8 -10 -11 -5 -3 -10 -1 -10 4 0 6 5 11
10 11 6 0 10 -2 10 -4z m-117 -36 c-3 -11 -9 -20 -14 -20 -5 0 -9 9 -9 20 0
11 6 20 14 20 9 0 12 -7 9 -20z m182 2 c-3 -3 -11 0 -18 7 -9 10 -8 11 6 5 10
-3 15 -9 12 -12z m-1687 -30 c2 -6 -5 -10 -16 -9 -10 0 -19 6 -19 13 0 15 30
11 35 -4z m1582 8 c0 -5 -7 -10 -15 -10 -8 0 -15 5 -15 10 0 6 7 10 15 10 8 0
15 -4 15 -10z m-1540 -30 c0 -5 -7 -10 -15 -10 -8 0 -15 5 -15 10 0 6 7 10 15
10 8 0 15 -4 15 -10z m363 3 c3 -5 -10 -8 -28 -8 -18 0 -31 3 -28 8 2 4 15 7
28 7 13 0 26 -3 28 -7z m1184 -75 c-3 -7 -5 -2 -5 12 0 14 2 19 5 13 2 -7 2
-19 0 -25z m-367 1 c0 -5 -9 -9 -20 -9 -11 0 -20 -5 -20 -12 0 -6 -3 -8 -7 -5
-3 4 2 15 13 26 19 18 34 19 34 0z m330 -59 c0 -5 -7 -7 -15 -4 -8 4 -15 8
-15 10 0 2 7 4 15 4 8 0 15 -4 15 -10z m44 -16 c3 -8 2 -12 -4 -9 -6 3 -10 10
-10 16 0 14 7 11 14 -7z m-1399 -812 c-3 -3 -11 0 -18 7 -9 10 -8 11 6 5 10
-3 15 -9 12 -12z m-20 -50 c-4 -4 -10 -2 -12 5 -2 7 -12 10 -21 7 -9 -3 -6 1
8 10 22 13 25 13 28 0 2 -9 1 -19 -3 -22z m-298 22 c-3 -3 -12 -4 -19 -1 -8 3
-5 6 6 6 11 1 17 -2 13 -5z m333 -24 c0 -5 -4 -10 -10 -10 -5 0 -10 5 -10 10
0 6 5 10 10 10 6 0 10 -4 10 -10z m288 -25 c15 -4 22 -9 15 -12 -19 -7 -53 16
-52 35 1 15 2 15 6 0 2 -9 16 -19 31 -23z m-218 17 c0 -5 -7 -9 -15 -9 -8 0
-15 4 -15 9 0 4 7 8 15 8 8 0 15 -4 15 -8z m42 -33 c23 -21 23 -28 -2 -22 -11
3 -17 10 -13 16 4 6 0 8 -9 5 -12 -5 -14 0 -10 20 3 17 7 22 10 12 3 -8 13
-22 24 -31z m124 -5 c8 3 14 1 14 -4 0 -5 -10 -9 -23 -8 -18 2 -23 8 -24 33
l-2 30 11 -28 c6 -18 15 -26 24 -23z m-205 7 c7 11 9 11 9 -3 0 -11 -8 -18
-20 -18 -15 0 -20 -7 -20 -26 0 -16 5 -24 13 -21 6 2 12 9 12 15 0 18 12 24
18 8 4 -9 0 -22 -8 -30 -12 -12 -12 -15 0 -19 7 -3 16 -1 18 6 2 7 8 9 12 5 4
-4 4 -11 0 -17 -7 -12 -52 -5 -73 12 -9 7 -11 6 -6 -7 3 -9 2 -16 -3 -16 -5 0
-10 23 -12 51 -2 43 0 50 16 47 13 -2 19 5 22 22 l5 25 4 -24 c3 -19 6 -21 13
-10z m133 13 c13 -5 13 -8 1 -20 -18 -18 -26 -18 -19 0 3 8 -2 16 -13 19 -15
4 -15 5 -1 6 9 0 23 -2 32 -5z m31 -52 c-8 -8 -25 10 -19 20 4 6 9 5 15 -3 4
-7 6 -15 4 -17z m-660 8 c3 -5 -1 -10 -10 -10 -9 0 -13 5 -10 10 3 6 8 10 10
10 2 0 7 -4 10 -10z m543 -13 c2 -9 -2 -17 -9 -17 -7 0 -9 3 -6 7 4 3 1 13 -6
21 -10 13 -9 14 3 10 8 -2 16 -12 18 -21z m332 13 c0 -5 -5 -10 -11 -10 -5 0
-7 5 -4 10 3 6 8 10 11 10 2 0 4 -4 4 -10z m-455 -9 c3 -5 1 -12 -5 -16 -5 -3
-10 1 -10 9 0 18 6 21 15 7z m274 -8 c1 21 43 23 64 3 12 -13 17 -13 36 0 22
16 29 6 9 -14 -9 -9 -9 -15 1 -24 11 -11 13 -10 9 2 -2 8 4 23 14 33 10 9 18
13 18 7 0 -5 8 -10 18 -11 11 -1 9 -3 -7 -8 -14 -4 -27 -13 -29 -20 -3 -8 0
-11 6 -7 6 3 13 2 17 -4 4 -6 11 -7 17 -4 6 4 5 10 -3 15 -10 6 -6 9 14 9 17
0 27 -5 27 -15 0 -8 -5 -15 -12 -15 -6 0 -8 -3 -5 -6 4 -4 14 -1 22 6 9 7 15
9 14 4 -1 -5 -1 -16 0 -24 1 -12 3 -12 10 -2 7 11 9 11 14 0 3 -10 -3 -14 -18
-14 -14 0 -21 5 -18 11 3 5 0 5 -7 -2 -11 -10 -11 -15 0 -27 7 -9 17 -13 23
-9 6 3 7 1 3 -5 -4 -7 0 -12 11 -13 13 -1 11 -3 -7 -9 -14 -4 -20 -8 -13 -9
19 -2 11 -41 -9 -41 -23 0 -24 -20 0 -21 15 0 15 -1 -1 -8 -17 -6 -17 -8 -3
-20 9 -7 16 -9 16 -3 0 5 8 12 19 15 12 3 18 -1 17 -12 -1 -9 5 -15 14 -12 8
2 20 4 25 5 6 1 16 5 24 10 10 7 12 3 6 -15 -4 -13 -13 -27 -19 -31 -8 -6 -7
-11 4 -17 8 -6 19 -6 25 -2 5 4 21 1 35 -6 l25 -14 -33 4 c-20 2 -31 0 -29 -7
2 -6 -3 -17 -12 -24 -12 -9 -12 -12 -2 -10 7 2 16 -3 18 -10 4 -10 -2 -11 -24
-6 -38 9 -43 12 -39 27 1 7 1 9 -1 4 -3 -4 -9 -4 -15 -1 -5 4 -5 -4 2 -16 7
-13 8 -20 2 -16 -6 3 -13 2 -17 -4 -3 -5 3 -10 15 -10 12 0 19 -4 16 -9 -3 -5
-16 -7 -29 -5 -16 4 -14 1 8 -10 l30 -15 -35 6 c-19 3 -37 7 -39 9 -2 2 -10
-4 -18 -14 -12 -15 -13 -14 -7 11 5 24 3 27 -17 27 -18 0 -20 -3 -10 -9 8 -5
12 -18 8 -30 -6 -24 12 -28 31 -9 10 10 15 10 22 -2 5 -8 10 -10 10 -4 0 7 11
9 27 6 25 -5 25 -6 8 -13 -19 -7 -19 -8 3 -8 12 -1 22 4 22 10 0 5 5 7 11 3
18 -11 -19 -27 -52 -22 -16 3 -29 1 -29 -4 0 -4 8 -8 18 -9 9 -1 24 -2 32 -3
8 -2 29 -4 45 -6 28 -3 27 -3 -10 -9 -22 -4 -48 -3 -57 1 -9 4 -33 8 -52 8
-20 0 -36 5 -36 10 0 6 -9 10 -20 10 -23 0 -27 28 -5 36 8 4 15 10 15 15 0 6
-9 5 -20 -1 -11 -6 -25 -8 -30 -5 -5 3 -11 1 -15 -5 -3 -5 1 -10 9 -10 9 0 16
-6 16 -14 0 -22 51 -49 90 -48 23 1 30 -1 21 -7 -15 -10 -45 -8 -75 5 -13 5
-17 4 -12 -4 3 -6 2 -13 -4 -17 -5 -3 -10 2 -11 12 0 10 -3 13 -6 6 -10 -27
-24 -12 -18 18 5 20 3 29 -3 25 -5 -3 -18 4 -28 16 -11 12 -14 18 -8 15 7 -4
14 2 17 12 3 14 -2 20 -19 24 -14 2 -24 -1 -24 -7 0 -7 -9 -12 -20 -12 -11 0
-20 4 -20 8 0 4 5 8 11 8 5 0 8 4 4 10 -3 5 -12 7 -20 4 -8 -4 -13 -10 -10
-14 4 -7 -17 -20 -31 -20 -7 0 1 45 9 51 5 3 2 21 -7 40 -9 21 -15 27 -15 16
-1 -10 -5 -16 -10 -13 -10 6 -3 46 8 44 3 0 10 0 15 1 13 2 -40 41 -55 41 -8
0 -3 7 9 16 20 14 24 14 39 -2 16 -15 18 -15 34 5 10 12 19 16 21 10 2 -7 18
-13 35 -14 25 -2 33 2 42 24 10 23 10 24 -2 9 -16 -20 -32 -24 -21 -5 5 7 2 7
-10 -2 -15 -12 -17 -12 -14 0 2 10 -5 13 -24 11 -23 -2 -27 1 -22 15 4 11 3
14 -3 7 -4 -6 -25 -17 -47 -24 -40 -13 -55 -5 -56 28 0 7 -3 11 -8 8 -4 -2
-18 2 -32 10 -19 10 -21 13 -7 14 10 0 17 8 17 19 0 22 -26 36 -34 18 -2 -7
-5 -4 -5 6 -1 9 1 17 3 17 2 0 12 3 22 7 11 4 15 3 11 -4 -4 -6 0 -14 9 -17
22 -8 30 0 16 16 -14 18 6 42 37 46 24 2 24 2 6 -18 -10 -11 -15 -23 -11 -28
4 -4 16 3 26 16 10 12 27 22 38 22 15 0 18 6 15 28 -3 23 -2 24 6 7 8 -17 10
-18 10 -2z m-669 -7 c0 -3 -4 -8 -10 -11 -5 -3 -10 -1 -10 4 0 6 5 11 10 11 6
0 10 -2 10 -4z m55 -29 c5 -1 8 -13 6 -27 -3 -21 -1 -22 13 -11 10 8 14 21 11
32 -5 14 -1 19 14 19 15 0 21 -6 21 -21 0 -11 5 -17 10 -14 6 4 7 12 3 18 -4
7 2 5 13 -3 29 -22 30 -24 11 -17 -15 6 -17 3 -12 -14 6 -18 5 -19 -13 -10
-27 14 -32 14 -32 -3 0 -18 59 -14 71 5 4 7 11 10 14 7 4 -4 -2 -17 -14 -29
-12 -13 -21 -28 -21 -33 0 -11 80 -49 88 -42 8 9 -10 26 -20 20 -6 -4 -9 -1
-6 7 3 8 13 13 22 11 10 -2 25 3 34 10 12 10 14 10 8 1 -4 -7 -2 -13 3 -13 6
0 11 -8 11 -17 0 -15 -1 -15 -13 2 -10 12 -16 14 -21 7 -4 -7 -2 -12 4 -12 6
0 9 -10 6 -22 -3 -21 0 -23 40 -21 24 0 44 -3 44 -8 0 -5 8 -9 18 -9 13 0 14
-2 4 -9 -11 -7 -11 -9 2 -14 9 -4 16 -14 16 -22 0 -9 -4 -14 -9 -11 -5 4 -7
-3 -4 -13 9 -33 29 -2 25 37 -3 25 -1 33 8 27 6 -4 9 -17 6 -30 -3 -13 -2 -27
4 -30 6 -4 10 8 10 28 0 34 1 35 40 33 28 -2 40 2 43 13 3 10 5 7 6 -6 1 -18
-4 -23 -23 -23 -38 0 -56 -10 -56 -32 0 -17 5 -20 30 -16 17 3 30 1 30 -4 0
-4 -6 -8 -12 -9 -10 0 -10 -2 0 -6 6 -2 12 -9 12 -14 0 -6 -4 -7 -10 -4 -5 3
-10 2 -10 -4 0 -14 38 -33 50 -26 6 3 10 1 10 -4 0 -6 -7 -11 -15 -11 -8 0
-15 -4 -15 -10 0 -14 27 -12 33 3 4 9 7 9 18 -1 12 -11 12 -14 0 -22 -12 -7
-12 -11 2 -25 16 -15 17 -14 17 19 0 28 4 36 18 36 14 0 15 2 2 10 -20 13 -33
13 -25 0 10 -16 -11 -11 -25 5 -7 9 -19 14 -27 11 -7 -3 -13 -1 -13 4 0 6 8
10 18 10 15 1 15 2 -2 15 -20 15 -20 15 -1 29 15 11 25 11 40 4 32 -17 32 -20
-2 -15 -18 3 -33 2 -33 -1 1 -10 26 -42 33 -42 4 0 4 8 0 18 -5 13 -1 11 14
-5 11 -13 23 -20 26 -17 3 3 11 3 17 -1 8 -5 8 -10 0 -20 -6 -7 -10 -17 -9
-21 3 -21 -2 -28 -11 -14 -8 12 -10 9 -10 -13 0 -16 4 -26 9 -22 5 3 13 0 17
-6 4 -7 3 -9 -4 -6 -6 5 -13 -9 -17 -35 -7 -40 -8 -41 -17 -19 -6 17 -5 27 4
32 7 4 9 11 5 16 -13 12 -26 -19 -21 -52 2 -16 2 -25 -1 -19 -8 15 -57 5 -74
-15 -12 -15 -13 -14 -7 3 6 17 2 18 -46 12 -36 -5 -54 -3 -60 6 -6 8 -7 4 -2
-12 7 -25 7 -25 -15 -6 -20 18 -30 11 -13 -10 4 -5 3 -6 -2 -2 -5 4 -15 3 -23
-3 -9 -8 -13 -8 -13 0 0 6 5 11 10 11 6 0 10 8 10 18 0 15 -2 15 -11 2 -8 -12
-10 -9 -6 13 3 20 1 25 -8 17 -22 -18 -85 -23 -91 -7 -3 9 -17 18 -30 21 -17
5 -26 16 -31 37 -5 27 -9 30 -31 24 -23 -6 -24 -5 -7 11 16 17 16 18 -1 31
-16 12 -16 13 -1 13 9 0 17 4 17 9 0 5 -6 9 -12 8 -45 -1 -72 4 -59 12 18 11
5 31 -20 31 -10 0 -19 5 -19 11 0 7 10 9 28 5 l27 -7 -25 21 c-14 11 -28 20
-31 20 -4 0 -6 11 -6 23 0 20 4 23 23 19 26 -5 32 -18 12 -25 -7 -2 -10 -8 -5
-12 4 -5 12 -4 19 3 8 8 8 19 -1 41 -10 22 -10 34 -2 48 10 15 10 14 5 -9 -4
-18 -2 -28 5 -28 6 0 10 3 10 8 -1 4 0 9 1 12 7 18 7 40 0 40 -5 0 -15 2 -22
5 -10 4 -15 -5 -16 -32 -4 -54 -12 -54 -12 0 0 35 4 47 15 47 8 0 15 5 15 11
0 6 -7 9 -15 6 -8 -4 -17 -2 -20 2 -3 5 1 11 9 14 9 4 12 14 9 26 -3 12 -9 19
-13 16 -5 -3 -6 5 -2 17 5 19 6 20 12 4 3 -10 10 -18 15 -19z m295 17 c0 -2
-7 -4 -15 -4 -8 0 -15 4 -15 10 0 5 7 7 15 4 8 -4 15 -8 15 -10z m190 -14 c0
-5 -2 -10 -4 -10 -3 0 -8 5 -11 10 -3 6 -1 10 4 10 6 0 11 -4 11 -10z m-550
-10 c0 -5 -8 -6 -17 -3 -15 6 -16 4 -5 -9 8 -10 9 -19 4 -22 -12 -7 -25 22
-16 35 7 12 34 12 34 -1z m357 -42 c-3 -7 -5 -2 -5 12 0 14 2 19 5 13 2 -7 2
-19 0 -25z m20 10 c-3 -8 -6 -5 -6 6 -1 11 2 17 5 13 3 -3 4 -12 1 -19z m33
12 c0 -5 -5 -10 -11 -10 -5 0 -7 5 -4 10 3 6 8 10 11 10 2 0 4 -4 4 -10z m67
-15 c0 -8 -4 -15 -9 -15 -4 0 -8 7 -8 15 0 8 4 15 8 15 5 0 9 -7 9 -15z m-517
-5 c0 -5 -2 -10 -4 -10 -3 0 -8 5 -11 10 -3 6 -1 10 4 10 6 0 11 -4 11 -10z
m279 -23 c0 -21 -1 -21 -9 -2 -12 28 -12 37 0 30 6 -3 10 -16 9 -28z m211 18
c0 -8 8 -15 17 -15 9 0 14 -3 11 -6 -3 -3 -21 -1 -39 5 -21 6 -26 10 -14 10
17 1 17 3 5 11 -13 8 -12 10 3 10 9 0 17 -7 17 -15z m-470 -35 c0 13 1 13 10
0 15 -23 12 -29 -10 -23 -11 3 -20 13 -20 22 0 14 2 14 10 1 9 -13 10 -13 10
0z m230 -12 c-1 -21 -2 -21 -11 -5 -6 9 -15 14 -21 11 -7 -4 -8 -2 -4 4 12 21
36 13 36 -10z m-260 2 c0 -5 -4 -10 -10 -10 -5 0 -10 5 -10 10 0 6 5 10 10 10
6 0 10 -4 10 -10z m424 -49 c7 -11 10 -11 17 0 7 11 9 10 9 -5 0 -12 5 -16 15
-12 8 3 15 1 15 -4 0 -5 -13 -8 -30 -8 -19 1 -30 6 -30 16 0 9 -6 12 -16 8
-12 -4 -15 -2 -10 9 3 8 1 15 -3 15 -5 0 -11 -7 -15 -15 -3 -8 -16 -14 -28
-14 l-23 2 23 4 c12 2 22 10 21 16 -4 35 1 40 24 21 12 -10 26 -25 31 -33z
m-404 17 c0 -4 -7 -8 -15 -8 -8 0 -15 4 -15 8 0 5 7 9 15 9 8 0 15 -4 15 -9z
m546 -33 c-8 -8 -18 -15 -22 -15 -3 0 -1 7 6 15 7 8 17 15 22 15 5 0 3 -7 -6
-15z m42 -60 c-3 -4 -22 -7 -42 -8 -20 -1 -36 -5 -36 -9 0 -5 -4 -8 -10 -8 -5
0 -7 7 -3 15 3 9 13 15 22 14 41 -4 62 1 55 14 -5 9 -4 9 6 0 8 -7 11 -15 8
-18z m487 15 c3 -5 1 -10 -4 -10 -6 0 -11 5 -11 10 0 6 2 10 4 10 3 0 8 -4 11
-10z m-1032 -31 c5 -3 0 -9 -11 -11 -15 -4 -18 -1 -14 14 2 10 7 15 11 11 3
-4 10 -11 14 -14z m1017 -4 c0 -8 -4 -15 -10 -15 -5 0 -7 7 -4 15 4 8 8 15 10
15 2 0 4 -7 4 -15z m37 8 c-9 -2 -15 -9 -12 -14 4 -5 1 -9 -4 -9 -6 0 -11 7
-11 15 0 9 9 15 23 14 17 -1 18 -2 4 -6z m76 -20 c-7 -2 -19 -2 -25 0 -7 3 -2
5 12 5 14 0 19 -2 13 -5z m-1098 -23 c18 -8 17 -9 -7 -9 -16 -1 -28 4 -28 9 0
12 8 12 35 0z m1022 -37 c-4 -3 -1 -13 6 -21 9 -13 9 -14 0 -8 -7 4 -13 2 -13
-3 0 -23 -16 -10 -18 14 -1 17 3 25 15 25 9 0 13 -3 10 -7z m70 1 c-3 -3 -12
-4 -19 -1 -8 3 -5 6 6 6 11 1 17 -2 13 -5z m-1067 -14 c0 -5 -5 -10 -11 -10
-5 0 -7 5 -4 10 3 6 8 10 11 10 2 0 4 -4 4 -10z m37 4 c-3 -3 -12 -4 -19 -1
-8 3 -5 6 6 6 11 1 17 -2 13 -5z m1020 -10 c-3 -3 -12 -4 -19 -1 -8 3 -5 6 6
6 11 1 17 -2 13 -5z m-1013 -10 c19 -7 11 -24 -10 -24 -8 0 -13 4 -10 9 4 5 0
12 -6 14 -9 4 -9 6 -1 6 6 1 18 -2 27 -5z m923 -44 c-2 -11 -6 -22 -9 -26 -4
-3 -4 -13 -2 -22 4 -12 2 -12 -7 2 -9 15 -9 24 0 38 10 17 9 18 -14 12 -31 -8
-33 4 -2 15 28 11 38 5 34 -19z m-932 -10 c3 -5 2 -10 -4 -10 -5 0 -13 5 -16
10 -3 6 -2 10 4 10 5 0 13 -4 16 -10z m967 -39 c-4 -10 -7 -11 -10 -3 -2 7 -9
9 -14 6 -6 -4 -8 -3 -5 3 10 16 36 11 29 -6z m-360 -10 c7 11 8 10 6 -4 -5
-28 -23 -25 -25 3 -1 17 0 19 4 6 4 -15 7 -16 15 -5z m47 -26 c0 -5 -6 -1 -14
9 -8 11 -15 24 -15 30 0 5 7 1 15 -10 8 -10 14 -23 14 -29z m199 -18 c13 4 14
3 3 -5 -7 -5 -17 -16 -22 -23 -6 -10 -8 -5 -8 16 0 17 3 25 5 18 3 -7 13 -9
22 -6z m-531 -23 c-3 -3 -12 -4 -19 -1 -8 3 -5 6 6 6 11 1 17 -2 13 -5z m129
-28 c-4 -27 -1 -35 15 -39 10 -3 19 -1 19 4 0 5 -8 9 -17 9 -16 1 -16 2 2 16
11 8 21 11 23 6 1 -5 16 -6 32 -4 18 3 30 0 30 -7 0 -6 -11 -11 -25 -11 -14 0
-25 -4 -25 -9 0 -5 12 -6 27 -2 16 4 45 4 65 1 31 -6 40 -4 52 14 11 15 14 16
10 4 -5 -15 0 -18 25 -18 17 0 31 -5 31 -11 0 -5 5 -7 10 -4 6 3 10 1 10 -5 0
-6 5 -8 10 -5 6 3 10 13 10 21 0 9 -5 12 -12 8 -7 -4 -8 -3 -4 5 11 17 26 3
27 -27 2 -26 2 -26 6 -3 3 13 12 31 20 40 14 14 15 13 9 -5 -4 -13 0 -23 14
-32 17 -10 20 -10 20 3 0 8 -5 15 -11 15 -5 0 -7 5 -3 11 3 6 19 9 35 7 16 -3
30 -1 31 4 2 5 23 6 46 2 23 -4 41 -9 38 -11 -3 -3 -1 -16 4 -29 9 -21 7 -24
-16 -24 -13 0 -27 -7 -30 -15 -4 -8 -10 -13 -15 -10 -4 3 -13 -4 -20 -17 -10
-18 -13 -19 -23 -7 -6 9 -20 18 -31 22 -17 6 -17 4 3 -9 26 -19 28 -30 6 -38
-12 -4 -15 -2 -10 9 3 9 0 15 -9 15 -8 0 -15 -9 -15 -20 0 -15 7 -20 29 -20
18 0 31 -6 35 -16 5 -14 4 -15 -9 -4 -8 7 -24 10 -35 7 -11 -3 -23 -1 -26 4
-9 15 -24 10 -18 -6 4 -8 13 -15 20 -15 12 0 12 -4 3 -22 -11 -21 -12 -21 -24
8 -8 16 -14 24 -14 18 -1 -7 -12 -9 -27 -6 -18 3 -25 1 -20 -6 3 -6 -2 -13
-11 -15 -14 -4 -13 -5 5 -6 12 0 22 4 22 9 0 6 5 10 11 10 5 0 7 -5 3 -12 -5
-8 -2 -9 9 -5 10 3 17 2 17 -3 0 -6 -7 -10 -15 -10 -8 0 -15 -6 -16 -12 0 -10
-2 -10 -6 0 -6 14 -33 16 -33 2 0 -5 5 -10 10 -10 6 0 10 -7 10 -15 0 -12 -4
-14 -20 -5 -15 8 -21 6 -30 -10 -6 -11 -15 -20 -21 -20 -18 0 -41 30 -36 45 5
11 0 12 -24 3 -31 -11 -40 -23 -11 -16 12 4 18 -1 18 -13 0 -10 -4 -15 -9 -12
-17 10 -88 13 -82 3 3 -6 1 -10 -5 -10 -7 0 -10 -7 -6 -15 3 -8 1 -15 -5 -15
-6 0 -7 -5 -3 -11 11 -18 -40 12 -54 32 -12 17 -52 23 -52 7 0 -4 10 -7 21 -5
16 1 22 -4 25 -23 2 -14 1 -20 -3 -14 -5 6 -22 19 -40 28 -30 15 -33 15 -43
-2 -10 -15 -10 -15 -8 3 2 15 -3 20 -19 20 -11 0 -25 3 -29 8 -4 4 -16 7 -26
7 -10 0 -18 5 -18 10 0 6 5 10 11 10 5 0 8 4 4 10 -8 14 -35 1 -29 -15 3 -7 0
-16 -7 -21 -8 -4 -10 -3 -5 4 5 8 -1 12 -16 12 -18 0 -20 2 -8 10 10 6 11 10
3 10 -8 0 -13 13 -13 33 0 18 -6 39 -12 45 -8 8 -9 15 -3 20 12 9 19 62 8 62
-5 0 -10 -12 -11 -27 -1 -15 -7 -32 -13 -38 -7 -7 -8 -2 -4 16 4 17 2 30 -6
35 -9 5 -10 2 -5 -11 5 -15 4 -16 -9 -5 -17 14 -10 34 10 26 12 -4 35 11 35
25 0 4 -16 6 -35 4 -19 -2 -35 1 -35 6 0 5 5 9 10 9 6 0 10 8 10 18 0 13 -2
14 -9 4 -7 -11 -9 -11 -14 1 -6 16 9 17 32 3 9 -6 18 -3 26 7 15 21 91 25 79
5 -6 -10 -5 -10 8 -1 8 7 17 11 19 9 2 -2 31 -7 64 -11 33 -3 64 -7 70 -8 5
-1 9 4 8 11 -2 9 23 47 34 51 2 1 1 -14 -1 -33z m-396 -22 c-18 -21 -24 -10
-8 15 7 12 14 17 16 11 2 -6 -2 -17 -8 -26z m555 16 c-3 -5 1 -10 9 -10 9 0
16 -4 16 -8 0 -4 -16 -6 -35 -4 -19 2 -35 8 -35 14 0 5 5 6 10 3 6 -3 10 -1
10 4 0 6 7 11 16 11 8 0 12 -4 9 -10z m-445 -10 c0 -5 -4 -10 -10 -10 -5 0
-10 5 -10 10 0 6 5 10 10 10 6 0 10 -4 10 -10z m-67 -36 c-7 -19 -10 -18 -16
5 -3 13 -1 18 9 14 7 -2 10 -11 7 -19z m902 17 c3 -5 1 -12 -5 -16 -5 -3 -10
1 -10 9 0 18 6 21 15 7z m-895 -55 c0 -3 -4 -8 -10 -11 -5 -3 -10 -1 -10 4 0
6 5 11 10 11 6 0 10 -2 10 -4z m850 -46 c0 -5 -2 -10 -4 -10 -3 0 -8 5 -11 10
-3 6 -1 10 4 10 6 0 11 -4 11 -10z m-915 -410 c3 -6 -1 -7 -9 -4 -18 7 -21 14
-7 14 6 0 13 -4 16 -10z m-2823 -87 c-6 -15 -13 -41 -17 -58 -4 -16 -19 -57
-35 -90 -23 -49 -63 -171 -74 -222 -1 -7 -5 -16 -9 -19 -4 -4 -7 -18 -7 -31 0
-13 -4 -23 -10 -23 -5 0 -10 -7 -10 -15 0 -37 -89 -154 -97 -129 -2 5 3 33 11
62 9 35 10 55 3 59 -6 3 -7 1 -3 -5 3 -6 2 -13 -3 -16 -14 -9 -22 9 -15 29 4
10 14 15 25 12 15 -4 19 0 19 19 0 33 81 232 148 362 21 42 73 105 79 98 3 -3
1 -18 -5 -33z m3234 12 c18 -14 18 -16 2 -28 -10 -8 -15 -17 -11 -20 3 -4 1
-7 -6 -7 -6 0 -14 7 -18 16 -5 15 -7 15 -15 -1 -6 -9 -7 -19 -4 -22 3 -4 6 0
6 8 0 11 2 11 9 1 4 -7 28 -15 52 -17 24 -2 34 -1 21 2 -16 3 -22 9 -18 20 3
8 6 18 6 23 0 4 9 6 20 3 18 -5 19 -7 5 -17 -13 -9 -12 -11 9 -11 13 0 22 3
19 8 -2 4 6 7 19 6 13 0 17 -3 11 -6 -21 -8 -15 -33 8 -33 17 0 20 5 16 21 -4
16 -3 19 5 11 7 -7 17 -3 34 15 13 14 24 21 24 14 0 -6 -7 -14 -15 -17 -8 -4
-15 -11 -15 -16 0 -6 12 -2 28 7 l27 18 -19 -22 c-16 -18 -17 -21 -3 -16 13 6
15 1 12 -32 -5 -38 -5 -38 4 -5 11 41 22 54 19 22 -2 -16 2 -25 12 -25 8 -1
14 -6 13 -13 -2 -7 7 -12 18 -12 19 0 21 4 16 30 -4 17 -2 30 3 30 16 0 11
-52 -6 -71 -12 -13 -13 -22 -5 -36 10 -17 10 -16 11 4 0 12 4 25 10 28 6 4 7
-1 3 -11 -4 -10 -2 -15 4 -11 5 3 10 0 10 -8 0 -15 -6 -17 -59 -18 -16 -1 -28
-6 -29 -12 -1 -5 -5 1 -9 15 -8 24 -8 24 -9 3 -1 -13 -7 -23 -16 -23 -8 0 -15
-6 -16 -12 -1 -7 -5 -2 -9 12 -7 23 -8 23 -9 4 -1 -12 -7 -24 -13 -27 -20 -7
-78 4 -72 14 3 5 -7 14 -21 19 -21 8 -25 15 -20 33 5 19 4 20 -5 5 -13 -21
-38 -24 -45 -5 -3 7 -22 11 -51 10 -40 -2 -46 1 -54 23 -14 37 -12 42 9 17 10
-12 21 -19 25 -16 3 3 -3 13 -14 20 -11 8 -17 19 -14 25 4 6 -2 6 -15 -1 -16
-9 -21 -9 -21 0 0 7 -9 9 -22 6 -22 -6 -22 -6 -4 8 16 12 22 12 29 2 6 -8 7
-5 4 10 -4 19 -2 21 13 13 13 -7 21 -7 25 0 3 5 2 10 -3 10 -6 0 -8 9 -5 21 4
15 11 19 27 15 12 -3 28 -1 36 4 20 13 23 12 46 -5z m164 -9 c0 -3 -4 -8 -10
-11 -5 -3 -10 -1 -10 4 0 6 5 11 10 11 6 0 10 -2 10 -4z m109 -49 c0 -21 -1
-21 -9 -2 -12 28 -12 37 0 30 6 -3 10 -16 9 -28z m-564 3 c3 -6 -1 -7 -9 -4
-18 7 -21 14 -7 14 6 0 13 -4 16 -10z m66 -43 c-10 -9 -11 -8 -5 6 3 10 9 15
12 12 3 -3 0 -11 -7 -18z m69 -7 c0 -5 -4 -10 -10 -10 -5 0 -10 5 -10 10 0 6
5 10 10 10 6 0 10 -4 10 -10z m477 -12 c-3 -8 -6 -5 -6 6 -1 11 2 17 5 13 3
-3 4 -12 1 -19z m639 -174 c-3 -8 1 -17 9 -20 22 -9 18 -24 -5 -24 -16 0 -20
7 -20 36 0 22 4 33 11 29 6 -4 8 -13 5 -21z m24 -75 c0 -5 -7 -9 -15 -9 -8 0
-15 7 -15 15 0 9 6 12 15 9 8 -4 15 -10 15 -15z m2 -51 c7 -40 0 -232 -9 -258
-7 -17 -10 21 -9 128 1 140 7 186 18 130z m-4452 -18 c0 -5 -4 -10 -10 -10 -5
0 -10 5 -10 10 0 6 5 10 10 10 6 0 10 -4 10 -10z m4280 -132 c0 -7 15 -43 34
-80 24 -48 30 -68 20 -68 -8 0 -11 6 -7 18 3 9 2 14 -2 10 -11 -10 -38 29 -30
42 3 6 1 10 -5 10 -6 0 -9 4 -6 9 4 5 2 11 -3 13 -13 4 -22 58 -10 58 5 0 9
-6 9 -12z m-4350 -44 c0 -20 -18 -53 -43 -78 -19 -21 -20 -21 -12 -1 4 11 11
32 15 47 5 15 11 32 15 38 9 15 25 12 25 -6z m4459 -140 c-9 -11 -4 -12 25 -7
30 5 36 3 36 -12 0 -10 11 -28 24 -40 33 -31 42 -89 20 -137 l-17 -38 29 -31
c25 -26 29 -39 32 -104 4 -75 -5 -95 -27 -57 -21 35 -11 -61 10 -106 25 -51
30 -167 11 -289 -12 -84 -18 -95 -40 -89 -10 2 -29 7 -43 10 -17 4 -32 18 -43
40 -14 30 -15 50 -6 148 5 62 10 140 10 174 0 33 5 65 12 72 8 8 8 15 -1 26
-7 8 -15 40 -18 72 -5 45 -2 64 13 92 l19 35 -33 27 c-39 32 -54 77 -41 122
13 48 12 68 -6 62 -11 -5 -14 1 -12 23 2 25 5 28 30 25 22 -3 25 -7 16 -18z
m-4419 -142 c0 -5 -6 -17 -14 -28 -14 -19 -15 -18 -13 3 0 12 5 19 9 17 4 -3
8 0 8 5 0 6 2 11 5 11 3 0 5 -4 5 -8z m-51 -49 c6 -16 13 -44 15 -63 3 -19 7
-42 11 -51 7 -17 -17 -42 -45 -46 -10 -1 -22 7 -28 22 -7 14 -16 25 -22 25
-26 0 2 111 34 132 18 12 23 9 35 -19z m58 -40 c-2 -15 -9 -28 -16 -29 -6 -1
-7 0 -1 3 5 2 7 9 4 14 -6 11 2 39 11 39 3 0 4 -12 2 -27z m-3 -58 c-4 -8 -8
-15 -10 -15 -2 0 -4 7 -4 15 0 8 4 15 10 15 5 0 7 -7 4 -15z m4576 -191 c0
-17 -22 -14 -28 4 -2 7 3 12 12 12 9 0 16 -7 16 -16z m10 -39 c0 -8 -4 -15 -9
-15 -13 0 -22 16 -14 24 11 11 23 6 23 -9z m20 -45 c0 -5 -4 -10 -9 -10 -6 0
-13 5 -16 10 -3 6 1 10 9 10 9 0 16 -4 16 -10z m11 -45 c-1 -15 -24 -12 -29 3
-3 9 2 13 12 10 10 -1 17 -7 17 -13z m19 -45 c0 -5 -4 -10 -9 -10 -6 0 -13 5
-16 10 -3 6 1 10 9 10 9 0 16 -4 16 -10z m10 -50 c0 -5 -4 -10 -10 -10 -5 0
-10 5 -10 10 0 6 5 10 10 10 6 0 10 -4 10 -10z m20 -36 c0 -9 -7 -14 -17 -12
-25 5 -28 28 -4 28 12 0 21 -6 21 -16z m15 -44 c-3 -5 -13 -10 -21 -10 -8 0
-14 5 -14 10 0 6 9 10 21 10 11 0 17 -4 14 -10z m15 -46 c0 -9 -7 -14 -17 -12
-25 5 -28 28 -4 28 12 0 21 -6 21 -16z m60 -214 c0 -5 -4 -10 -10 -10 -5 0
-10 5 -10 10 0 6 5 10 10 10 6 0 10 -4 10 -10z m100 -300 c0 -5 -4 -10 -10
-10 -5 0 -10 5 -10 10 0 6 5 10 10 10 6 0 10 -4 10 -10z m105 -310 c3 -5 1
-10 -4 -10 -6 0 -11 5 -11 10 0 6 2 10 4 10 3 0 8 -4 11 -10z m35 -90 c0 -5
-4 -10 -10 -10 -5 0 -10 5 -10 10 0 6 5 10 10 10 6 0 10 -4 10 -10z m50 -140
c0 -5 -4 -10 -9 -10 -6 0 -13 5 -16 10 -3 6 1 10 9 10 9 0 16 -4 16 -10z m30
-90 c0 -5 -2 -10 -4 -10 -3 0 -8 5 -11 10 -3 6 -1 10 4 10 6 0 11 -4 11 -10z
m20 -42 c0 -4 -4 -8 -9 -8 -6 0 -12 4 -15 8 -3 5 1 9 9 9 8 0 15 -4 15 -9z"/>
<path d="M6084 8259 c-3 -5 6 -9 20 -9 31 0 34 6 6 13 -11 3 -23 1 -26 -4z"/>
<path d="M5950 8250 c0 -5 5 -10 10 -10 6 0 10 5 10 10 0 6 -4 10 -10 10 -5 0
-10 -4 -10 -10z"/>
<path d="M6020 8245 c0 -9 6 -12 15 -9 8 4 15 7 15 9 0 2 -7 5 -15 9 -9 3 -15
0 -15 -9z"/>
<path d="M5615 8231 c-6 -11 9 -23 19 -14 9 9 7 23 -3 23 -6 0 -12 -4 -16 -9z"/>
<path d="M5680 8180 c0 -5 5 -10 11 -10 5 0 7 5 4 10 -3 6 -8 10 -11 10 -2 0
-4 -4 -4 -10z"/>
<path d="M6235 8180 c-3 -6 1 -7 9 -4 18 7 21 14 7 14 -6 0 -13 -4 -16 -10z"/>
<path d="M5555 8153 c-18 -14 -18 -15 -2 -9 10 3 25 6 33 6 8 0 14 5 14 10 0
15 -22 12 -45 -7z"/>
<path d="M4880 7850 c0 -5 5 -10 10 -10 6 0 10 5 10 10 0 6 -4 10 -10 10 -5 0
-10 -4 -10 -10z"/>
<path d="M4860 7830 c0 -5 5 -10 11 -10 5 0 7 5 4 10 -3 6 -8 10 -11 10 -2 0
-4 -4 -4 -10z"/>
<path d="M5601 7434 c0 -11 3 -14 6 -6 3 7 2 16 -1 19 -3 4 -6 -2 -5 -13z"/>
<path d="M5636 7397 c3 -10 9 -15 12 -12 3 3 0 11 -7 18 -10 9 -11 8 -5 -6z"/>
<path d="M6330 6710 c0 -5 5 -10 10 -10 6 0 10 5 10 10 0 6 -4 10 -10 10 -5 0
-10 -4 -10 -10z"/>
<path d="M6330 6664 c0 -8 5 -12 10 -9 6 4 8 11 5 16 -9 14 -15 11 -15 -7z"/>
<path d="M6225 6310 c-3 -5 1 -10 10 -10 9 0 13 5 10 10 -3 6 -8 10 -10 10 -2
0 -7 -4 -10 -10z"/>
<path d="M6820 6316 c0 -2 7 -7 16 -10 8 -3 12 -2 9 4 -6 10 -25 14 -25 6z"/>
<path d="M5258 6293 c7 -3 16 -2 19 1 4 3 -2 6 -13 5 -11 0 -14 -3 -6 -6z"/>
<path d="M5880 6280 c0 -5 4 -10 9 -10 6 0 13 5 16 10 3 6 -1 10 -9 10 -9 0
-16 -4 -16 -10z"/>
<path d="M5760 6270 c8 -5 20 -10 25 -10 6 0 3 5 -5 10 -8 5 -19 10 -25 10 -5
0 -3 -5 5 -10z"/>
<path d="M6008 6262 c-10 -2 -18 -8 -18 -13 0 -11 11 -11 30 1 18 11 11 18
-12 12z"/>
<path d="M5790 6250 c-9 -6 -10 -10 -3 -10 6 0 15 5 18 10 8 12 4 12 -15 0z"/>
<path d="M5850 6251 c0 -5 6 -13 13 -19 10 -8 13 -6 14 9 1 10 -5 19 -13 19
-8 0 -14 -4 -14 -9z"/>
<path d="M6046 6244 c-3 -8 -2 -13 3 -9 5 3 11 -1 14 -7 2 -7 8 -10 12 -6 4 4
1 14 -8 22 -13 14 -16 14 -21 0z"/>
<path d="M5958 6243 c7 -3 16 -2 19 1 4 3 -2 6 -13 5 -11 0 -14 -3 -6 -6z"/>
<path d="M7028 6223 c6 -2 18 -2 25 0 6 3 1 5 -13 5 -14 0 -19 -2 -12 -5z"/>
<path d="M6075 6190 c-3 -5 -1 -10 4 -10 6 0 11 5 11 10 0 6 -2 10 -4 10 -3 0
-8 -4 -11 -10z"/>
<path d="M5178 6133 c7 -3 16 -2 19 1 4 3 -2 6 -13 5 -11 0 -14 -3 -6 -6z"/>
<path d="M5496 6107 c3 -10 9 -15 12 -12 3 3 0 11 -7 18 -10 9 -11 8 -5 -6z"/>
<path d="M5521 6094 c0 -11 3 -14 6 -6 3 7 2 16 -1 19 -3 4 -6 -2 -5 -13z"/>
<path d="M5580 6070 c0 -5 5 -10 11 -10 5 0 7 5 4 10 -3 6 -8 10 -11 10 -2 0
-4 -4 -4 -10z"/>
<path d="M4274 6016 c-3 -8 -4 -21 -1 -28 3 -8 6 -6 6 5 1 10 6 15 11 12 6 -3
10 -2 10 4 0 17 -20 23 -26 7z"/>
<path d="M4256 5917 c3 -10 9 -15 12 -12 3 3 0 11 -7 18 -10 9 -11 8 -5 -6z"/>
<path d="M4561 5814 c0 -11 3 -14 6 -6 3 7 2 16 -1 19 -3 4 -6 -2 -5 -13z"/>
<path d="M4555 5762 c-3 -9 0 -12 9 -9 7 3 18 1 24 -5 8 -8 9 -5 6 9 -6 23
-31 26 -39 5z"/>
<path d="M4917 5584 c-11 -12 13 -43 28 -38 11 5 12 11 4 25 -10 20 -21 24
-32 13z"/>
<path d="M5156 5495 c4 -8 8 -15 10 -15 2 0 4 7 4 15 0 8 -4 15 -10 15 -5 0
-7 -7 -4 -15z"/>
<path d="M5480 5441 c0 -6 7 -8 15 -5 8 4 15 1 15 -5 0 -6 -7 -11 -15 -11 -8
0 -15 -5 -15 -11 0 -6 7 -8 16 -5 12 4 15 2 11 -9 -10 -24 19 -43 60 -40 21 1
43 -2 50 -7 7 -5 17 -7 23 -3 6 4 17 1 26 -5 8 -8 28 -10 49 -7 21 4 35 2 35
-5 0 -6 13 -8 38 -3 20 4 47 9 60 11 12 3 31 0 42 -6 28 -15 43 -4 29 22 -9
16 -13 18 -19 7 -7 -10 -11 -10 -23 0 -11 9 -17 9 -22 0 -6 -8 -10 -7 -16 2
-6 10 -9 11 -9 2 0 -7 -7 -13 -15 -13 -8 0 -15 7 -15 15 0 14 -24 20 -59 15
-8 -1 -17 4 -21 11 -5 6 -19 13 -32 13 -12 1 -29 5 -36 10 -7 4 -16 5 -19 2
-4 -3 -1 -6 5 -6 7 0 12 -4 12 -10 0 -17 -26 -11 -64 15 -38 26 -51 31 -42 17
3 -5 -1 -9 -9 -9 -8 0 -13 5 -12 11 1 6 -8 12 -20 14 -13 2 -23 -1 -23 -7z
m53 -56 c-7 -21 -13 -19 -13 6 0 11 4 18 10 14 5 -3 7 -12 3 -20z m165 -19
c-1 -14 -5 -23 -9 -20 -7 4 0 44 7 44 2 0 3 -11 2 -24z"/>
<path d="M6056 5393 c-8 -8 -13 -9 -41 -12 -8 0 -15 -9 -15 -18 0 -10 -4 -14
-8 -8 -4 6 -20 10 -35 11 -22 0 -27 -4 -24 -16 2 -10 1 -24 -4 -32 -5 -10 -3
-15 6 -15 8 0 15 4 15 9 0 4 9 8 19 8 11 0 21 3 23 8 2 4 21 16 42 27 22 11
41 26 44 33 4 13 -10 16 -22 5z"/>
<path d="M4460 5350 c0 -5 5 -10 10 -10 6 0 10 5 10 10 0 6 -4 10 -10 10 -5 0
-10 -4 -10 -10z"/>
<path d="M6055 5346 c-25 -12 -27 -15 -12 -21 21 -9 87 2 87 14 0 9 -25 21
-38 21 -4 -1 -20 -7 -37 -14z"/>
<path d="M6720 5330 c0 -5 5 -10 11 -10 5 0 7 5 4 10 -3 6 -8 10 -11 10 -2 0
-4 -4 -4 -10z"/>
<path d="M5860 5310 c0 -5 5 -10 11 -10 5 0 7 5 4 10 -3 6 -8 10 -11 10 -2 0
-4 -4 -4 -10z"/>
<path d="M4511 5274 c0 -11 3 -14 6 -6 3 7 2 16 -1 19 -3 4 -6 -2 -5 -13z"/>
<path d="M4960 4871 c0 -5 9 -7 20 -4 11 3 20 7 20 9 0 2 -9 4 -20 4 -11 0
-20 -4 -20 -9z"/>
<path d="M5850 4645 c0 -5 5 -17 10 -25 5 -8 10 -10 10 -5 0 6 -5 17 -10 25
-5 8 -10 11 -10 5z"/>
<path d="M6508 6183 c6 -2 18 -2 25 0 6 3 1 5 -13 5 -14 0 -19 -2 -12 -5z"/>
<path d="M5452 4430 c0 -14 2 -19 5 -12 2 6 2 18 0 25 -3 6 -5 1 -5 -13z"/>
<path d="M5740 4415 c10 -12 10 -15 -1 -16 -8 0 -5 -4 6 -8 24 -10 47 -3 39
11 -4 6 -10 5 -15 -3 -7 -11 -9 -11 -9 2 0 9 -7 20 -16 23 -14 5 -15 4 -4 -9z"/>
<path d="M5680 4380 c-12 -8 -13 -11 -1 -19 11 -7 11 -9 0 -14 -11 -4 -11 -6
-1 -6 14 -1 26 22 20 38 -2 7 -8 7 -18 1z"/>
<path d="M5720 4350 c-13 -8 -12 -10 3 -10 9 0 17 5 17 10 0 12 -1 12 -20 0z"/>
<path d="M5673 4323 c-13 -2 -23 -8 -23 -12 0 -5 11 -6 25 -3 14 2 25 8 25 13
0 5 -1 8 -2 8 -2 -1 -13 -4 -25 -6z"/>
<path d="M5606 4311 c-4 -5 1 -8 9 -7 21 3 31 16 12 16 -9 0 -18 -4 -21 -9z"/>
<path d="M5696 4304 c-17 -12 -17 -14 -4 -14 9 0 20 5 23 11 11 17 2 18 -19 3z"/>
<path d="M5870 4290 c-6 -11 -8 -20 -6 -20 3 0 10 9 16 20 6 11 8 20 6 20 -3
0 -10 -9 -16 -20z"/>
<path d="M5590 4265 c0 -20 17 -28 23 -11 3 8 -1 17 -9 20 -8 3 -14 -1 -14 -9z"/>
<path d="M5826 4264 c-4 -9 -4 -19 -1 -22 3 -3 5 0 5 8 0 10 4 10 18 -1 16
-13 16 -13 2 6 -8 11 -15 21 -16 23 -1 2 -4 -5 -8 -14z"/>
<path d="M5867 4210 c3 -11 9 -20 14 -20 11 0 11 3 3 24 -9 23 -23 20 -17 -4z"/>
<path d="M5685 4201 c-3 -5 -2 -12 3 -15 5 -3 9 1 9 9 0 17 -3 19 -12 6z"/>
<path d="M5800 4180 c-8 -5 -10 -10 -5 -10 6 0 17 5 25 10 8 5 11 10 5 10 -5
0 -17 -5 -25 -10z"/>
<path d="M5937 4173 c-4 -3 -7 -11 -7 -17 0 -6 5 -5 12 2 6 6 9 14 7 17 -3 3
-9 2 -12 -2z"/>
<path d="M5738 4163 c7 -3 16 -2 19 1 4 3 -2 6 -13 5 -11 0 -14 -3 -6 -6z"/>
<path d="M5880 4156 c0 -2 7 -6 15 -10 8 -3 15 -1 15 4 0 6 -7 10 -15 10 -8 0
-15 -2 -15 -4z"/>
<path d="M5935 4130 c-3 -6 1 -7 9 -4 18 7 21 14 7 14 -6 0 -13 -4 -16 -10z"/>
<path d="M5730 4110 c0 -6 7 -10 15 -10 8 0 15 2 15 4 0 2 -7 6 -15 10 -8 3
-15 1 -15 -4z"/>
<path d="M5940 4110 c-12 -7 -10 -9 7 -7 12 0 19 5 17 9 -6 10 -6 10 -24 -2z"/>
<path d="M5686 4084 c-3 -9 -6 -17 -6 -18 0 -1 11 -2 25 -2 29 0 30 2 11 22
-18 18 -22 18 -30 -2z"/>
<path d="M5800 4030 c0 -13 11 -13 30 0 12 8 11 10 -7 10 -13 0 -23 -4 -23
-10z"/>
<path d="M5840 3980 c0 -5 5 -10 11 -10 5 0 7 5 4 10 -3 6 -8 10 -11 10 -2 0
-4 -4 -4 -10z"/>
<path d="M5111 4334 c0 -11 3 -14 6 -6 3 7 2 16 -1 19 -3 4 -6 -2 -5 -13z"/>
<path d="M5130 4300 c0 -5 5 -10 11 -10 5 0 7 5 4 10 -3 6 -8 10 -11 10 -2 0
-4 -4 -4 -10z"/>
<path d="M5180 4260 c0 -5 5 -10 11 -10 5 0 8 -4 5 -9 -4 -5 3 -7 14 -4 14 4
20 0 20 -10 0 -21 13 -28 30 -15 12 8 12 9 -2 4 -10 -3 -18 -1 -18 4 0 6 8 10
18 11 10 0 4 5 -13 11 -16 6 -32 14 -35 17 -9 11 -30 11 -30 1z"/>
<path d="M5128 4243 c7 -3 16 -2 19 1 4 3 -2 6 -13 5 -11 0 -14 -3 -6 -6z"/>
<path d="M5303 4203 c9 -2 25 -2 35 0 9 3 1 5 -18 5 -19 0 -27 -2 -17 -5z"/>
<path d="M5378 4133 c7 -3 16 -2 19 1 4 3 -2 6 -13 5 -11 0 -14 -3 -6 -6z"/>
<path d="M5191 4014 c0 -11 3 -14 6 -6 3 7 2 16 -1 19 -3 4 -6 -2 -5 -13z"/>
<path d="M5515 3981 c-3 -6 5 -15 17 -21 21 -10 21 -10 6 3 -10 8 -15 17 -11
20 3 4 4 7 0 7 -3 0 -8 -4 -12 -9z"/>
<path d="M5575 3979 c-4 -6 -5 -12 -2 -15 2 -3 7 2 10 11 7 17 1 20 -8 4z"/>
<path d="M5270 3949 c0 -5 4 -8 9 -5 5 4 12 0 14 -6 4 -10 6 -10 6 0 1 7 5 11
10 7 5 -3 12 -1 16 5 4 6 -6 10 -24 10 -17 0 -31 -5 -31 -11z"/>
<path d="M6021 3823 c0 -12 2 -13 6 -5 4 10 8 10 19 1 12 -10 13 -9 8 5 -8 21
-34 21 -33 -1z"/>
<path d="M5970 3822 c0 -4 10 -9 22 -9 18 -2 20 0 8 7 -18 12 -30 13 -30 2z"/>
<path d="M6073 3805 c0 -8 4 -12 9 -9 4 3 8 9 8 15 0 5 -4 9 -8 9 -5 0 -9 -7
-9 -15z"/>
<path d="M5920 3769 c0 -6 -7 -9 -15 -5 -8 3 -15 1 -15 -4 0 -6 9 -10 20 -10
11 0 20 7 20 15 0 8 -2 15 -5 15 -3 0 -5 -5 -5 -11z"/>
<path d="M5771 3724 c0 -11 3 -14 6 -6 3 7 2 16 -1 19 -3 4 -6 -2 -5 -13z"/>
<path d="M5886 3704 c-4 -9 -4 -19 -1 -22 3 -3 5 0 5 6 0 7 7 12 16 12 8 0 12
5 9 10 -9 15 -22 12 -29 -6z"/>
<path d="M5775 3670 c3 -5 8 -10 11 -10 2 0 4 5 4 10 0 6 -5 10 -11 10 -5 0
-7 -4 -4 -10z"/>
<path d="M5650 3660 c-13 -8 -12 -10 3 -10 9 0 17 5 17 10 0 12 -1 12 -20 0z"/>
<path d="M5620 3636 c0 -2 8 -10 18 -17 15 -13 16 -12 3 4 -13 16 -21 21 -21
13z"/>
<path d="M5792 3600 c-7 -12 -18 -18 -25 -14 -9 5 -9 4 0 -6 16 -17 43 -5 43
20 0 25 -2 25 -18 0z"/>
<path d="M5420 3593 c0 -17 19 -35 29 -29 6 4 17 4 24 -1 18 -11 37 -12 37 -2
0 5 -5 9 -11 9 -5 0 -8 4 -5 8 2 4 -11 6 -31 4 -25 -3 -34 -1 -29 7 4 6 2 11
-3 11 -6 0 -11 -3 -11 -7z"/>
<path d="M5530 3230 c-9 -6 -10 -10 -3 -10 6 0 15 5 18 10 8 12 4 12 -15 0z"/>
<path d="M5485 3214 c4 -11 8 -25 8 -32 0 -8 4 -9 10 -3 12 12 5 43 -12 49
-10 3 -12 0 -6 -14z"/>
<path d="M5480 3156 c0 -2 7 -7 16 -10 8 -3 12 -2 9 4 -6 10 -25 14 -25 6z"/>
<path d="M5520 3156 c0 -3 9 -10 20 -16 11 -6 20 -8 20 -6 0 3 -9 10 -20 16
-11 6 -20 8 -20 6z"/>
<path d="M5578 3143 c7 -3 16 -2 19 1 4 3 -2 6 -13 5 -11 0 -14 -3 -6 -6z"/>
<path d="M6552 2411 c-18 -11 -4 -41 19 -41 22 0 23 8 6 32 -8 9 -18 13 -25 9z"/>
<path d="M6503 2384 c-3 -8 -1 -29 4 -47 6 -24 15 -33 34 -35 32 -4 58 23 40
41 -9 9 -14 9 -21 -3 -7 -11 -11 -9 -19 13 -6 16 -11 33 -11 38 0 15 -20 10
-27 -7z"/>
<path d="M6540 2170 c0 -16 7 -20 35 -20 28 0 35 4 35 20 0 16 -7 20 -35 20
-28 0 -35 -4 -35 -20z"/>
<path d="M6565 2110 c-4 -6 7 -10 25 -10 18 0 29 4 25 10 -3 6 -15 10 -25 10
-10 0 -22 -4 -25 -10z"/>
<path d="M6575 1950 c-11 -19 -18 -116 -11 -165 8 -48 31 -70 47 -44 10 16 10
138 0 183 -6 31 -25 44 -36 26z"/>
<path d="M5175 9800 c3 -5 10 -10 16 -10 5 0 9 5 9 10 0 6 -7 10 -16 10 -8 0
-12 -4 -9 -10z"/>
<path d="M4800 9773 c-15 -6 -30 -22 -30 -34 0 -3 10 -5 23 -3 12 1 27 3 32 3
6 1 3 6 -5 11 -13 9 -13 11 0 20 16 10 5 12 -20 3z"/>
<path d="M4697 9743 c-4 -3 -7 -10 -7 -14 0 -9 39 1 46 12 6 10 -29 12 -39 2z"/>
</g>
</svg>
